<svg version="1.1" id="Layer_1" xmlns="http://www.w3.org/2000/svg" xmlns:xlink="http://www.w3.org/1999/xlink" x="0px" y="0px"
	 width="100%" viewBox="0 0 1536 1024" enable-background="new 0 0 1536 1024" xml:space="preserve">
<path fill="#000000" opacity="1.000000" stroke="none" 
	d="
M874.000000,1025.000000 
	C582.666687,1025.000000 291.833344,1025.000000 1.000000,1025.000000 
	C1.000000,683.666687 1.000000,342.333344 1.000000,1.000000 
	C513.000000,1.000000 1025.000000,1.000000 1537.000000,1.000000 
	C1537.000000,342.333344 1537.000000,683.666687 1537.000000,1025.000000 
	C1316.166626,1025.000000 1095.333374,1025.000000 874.000000,1025.000000 
M835.951538,322.408691 
	C835.663147,322.243042 835.374756,322.077393 835.039185,321.193512 
	C833.058655,319.097473 831.078064,317.001434 829.039185,314.214569 
	C827.394653,312.441956 825.750061,310.669312 823.957886,308.404510 
	C823.671692,308.234924 823.385498,308.065338 822.850281,307.272858 
	C821.601868,305.814331 820.353516,304.355804 818.951599,302.406921 
	C818.664124,302.240387 818.376648,302.073883 818.038818,301.191223 
	C814.978638,297.646606 811.918457,294.102020 808.525208,290.024933 
	C803.068909,282.371277 797.612549,274.717651 792.041687,266.281708 
	C788.053528,258.267273 784.110168,250.229965 780.029724,242.262756 
	C779.406311,241.045517 778.149658,240.152618 776.983215,238.394058 
	C776.906677,238.158218 776.830139,237.922394 776.511658,237.192078 
	C776.028748,236.466599 775.545776,235.741104 774.962280,234.529053 
	C774.802368,234.183990 774.532837,234.026291 773.986511,233.226868 
	C773.092346,232.139832 772.388794,230.413010 771.269958,230.079590 
	C767.045715,228.820709 764.355042,231.257660 763.055115,234.887802 
	C757.853882,249.411804 750.477478,262.740143 741.886841,275.511353 
	C732.307190,289.752655 722.216003,303.517365 709.938965,315.615753 
	C706.528625,318.976440 703.891541,323.121765 700.265686,327.151611 
	C696.141296,332.067719 692.016907,336.983826 687.269592,342.150024 
	C686.145142,343.733215 685.020630,345.316406 683.267456,347.150238 
	C680.477356,351.068665 677.687256,354.987122 674.255615,359.158661 
	C673.143005,361.080902 672.030396,363.003143 670.272278,365.167053 
	C669.146667,367.080017 668.021057,368.992950 666.308838,371.125061 
	C666.174561,371.722107 666.040222,372.319122 665.159546,372.967041 
	C663.987305,374.574646 662.513733,376.042755 661.694031,377.813538 
	C657.702393,386.436737 651.068848,393.878967 649.231201,403.742310 
	C648.213379,403.606628 646.839355,402.981659 646.238647,403.418945 
	C643.466248,405.437256 640.549866,407.448730 638.368652,410.038361 
	C635.834595,413.046875 634.012939,416.655396 631.983765,419.995880 
	C631.983765,419.995880 631.973511,419.894531 631.315979,420.155151 
	C630.902588,421.417114 630.489197,422.679108 629.875000,424.650818 
	C627.220764,431.343414 624.461914,437.996796 621.935059,444.737152 
	C617.269775,457.181427 617.779968,470.199615 617.171082,483.517242 
	C616.498596,491.105103 618.141235,498.280884 620.904053,505.668976 
	C620.904053,505.668976 621.077454,506.089691 621.068359,506.903137 
	C622.046814,509.971893 623.025269,513.040649 624.022827,515.962830 
	C624.022827,515.962830 623.877258,515.937073 624.048340,516.663452 
	C624.366028,517.477478 624.683716,518.291565 625.019165,518.964233 
	C625.019165,518.964233 624.878723,518.940369 625.050598,519.720642 
	C626.032227,522.184875 627.013855,524.649170 628.012146,526.973389 
	C628.012146,526.973389 627.872742,526.952209 628.031494,527.632751 
	C628.362915,528.169495 628.694397,528.706177 629.128296,529.792969 
	C629.454285,530.246643 629.780212,530.700317 630.078369,531.915588 
	C631.046265,533.980286 632.014160,536.045044 632.997620,537.982422 
	C632.997620,537.982422 632.870544,537.965332 633.032715,538.622986 
	C633.356018,539.119385 633.679321,539.615845 634.015015,539.972656 
	C634.015015,539.972656 633.875916,539.955383 634.026428,540.676697 
	C634.680115,541.823303 635.333862,542.969971 636.006348,543.979797 
	C636.006348,543.979797 635.869995,543.958191 636.005371,544.610229 
	C636.321350,545.107910 636.637329,545.605591 636.960876,546.020447 
	C636.960876,546.020447 636.877747,546.020203 637.063171,546.558838 
	C637.381958,546.744934 637.700745,546.930969 638.002991,547.758484 
	C638.089233,547.954285 638.175415,548.150024 638.613892,548.595825 
	C639.028687,548.944214 639.443420,549.292603 640.052734,550.362427 
	C643.436279,556.171631 646.197693,562.470825 650.316589,567.700928 
	C664.260864,585.407288 678.685974,602.734924 693.285950,620.747375 
	C701.916443,630.452148 710.397583,640.295105 719.215149,649.826782 
	C730.281250,661.789124 741.628662,673.491028 752.837524,685.321533 
	C753.968933,686.515564 754.982727,687.820923 756.029785,689.704102 
	C756.331726,690.163574 756.633667,690.623047 756.948853,691.009521 
	C756.948853,691.009521 756.875549,691.020569 757.047058,691.560791 
	C757.362000,691.750305 757.676941,691.939819 757.992004,692.009460 
	C757.992004,692.009460 757.872192,692.011353 758.044800,692.556580 
	C758.362244,692.747864 758.679626,692.939209 758.996155,693.006714 
	C758.996155,693.006714 758.872314,693.008850 759.046509,693.558716 
	C759.367737,693.749939 759.688904,693.941162 760.008301,693.992615 
	C760.008301,693.992615 759.868530,693.992432 760.039917,694.547058 
	C760.361206,694.741638 760.682495,694.936218 761.003418,694.996277 
	C761.003418,694.996277 760.868835,694.995605 761.041077,695.549255 
	C761.362427,695.743225 761.683716,695.937195 762.004639,695.995056 
	C762.004639,695.995056 761.868469,695.994263 762.040833,696.548584 
	C762.362488,696.742859 762.684143,696.937134 762.999023,697.008301 
	C762.999023,697.008301 762.875916,697.016113 763.174072,697.724182 
	C767.416077,700.851868 771.723816,701.214844 776.017700,698.023315 
	C776.017700,698.023315 776.014343,698.121765 776.563171,697.949585 
	C776.732971,697.622925 776.902710,697.296265 776.947998,696.911072 
	C776.947998,696.911072 776.874573,697.027466 777.137085,696.601440 
	C777.649719,696.218567 778.162354,695.835632 779.034180,694.806152 
	C786.455383,686.590576 793.804871,678.308777 801.315796,670.176147 
	C810.756592,659.953918 820.454468,649.967285 829.813171,639.671509 
	C840.792114,627.593323 851.519043,615.286194 862.367249,603.089050 
	C875.480225,588.345459 887.449890,572.730103 897.433411,555.700500 
	C908.942444,536.068726 918.492859,515.630798 921.019531,492.613770 
	C921.222473,490.764435 921.102173,488.879639 921.836548,486.625702 
	C921.908325,478.162933 922.066223,469.699158 921.968140,461.238373 
	C921.951538,459.810638 920.830994,458.395752 920.051331,456.060272 
	C919.933716,454.504608 919.816040,452.948975 919.657410,450.688141 
	C918.771851,448.089905 917.886292,445.491669 916.977905,443.038788 
	C916.977905,443.038788 917.122009,443.068390 916.944214,442.349213 
	C916.639587,441.531494 916.334961,440.713806 916.015442,440.007629 
	C916.015442,440.007629 916.127136,440.021301 915.975342,439.234772 
	C914.646179,435.492737 913.529175,431.658264 911.947388,428.026245 
	C907.513855,417.846680 902.720581,407.883392 891.646240,402.040405 
	C887.127869,393.664246 882.609497,385.288116 878.028076,376.204346 
	C876.715576,374.440765 875.403076,372.677155 874.035217,370.186462 
	C871.720154,367.095703 869.405090,364.004944 867.032776,360.192047 
	C864.055481,356.429108 861.078186,352.666168 858.039062,348.187988 
	C855.056152,344.763062 852.073242,341.338104 849.031311,337.196747 
	C846.715027,334.771118 844.398743,332.345520 842.038147,329.226288 
	C840.393738,327.449646 838.749329,325.673004 836.950745,323.409882 
	C836.666504,323.241150 836.382324,323.072418 835.951538,322.408691 
z"/>
<path fill="#1B315B" opacity="1.000000" stroke="none" 
	d="
M621.077454,506.089691 
	C621.077454,506.089691 620.904053,505.668976 621.000488,505.014954 
	C620.039307,497.295441 618.981689,490.229919 617.924011,483.164429 
	C617.779968,470.199615 617.269775,457.181427 621.935059,444.737152 
	C624.461914,437.996796 627.220764,431.343414 630.305420,424.170044 
	C631.148438,422.424347 631.560974,421.159424 631.973511,419.894531 
	C631.973511,419.894531 631.983765,419.995880 632.273804,420.091797 
	C633.629211,418.721649 634.694641,417.255585 635.973755,415.956543 
	C636.336670,416.225555 636.485962,416.327545 636.532715,416.805969 
	C635.008789,426.357147 632.243530,435.553619 632.390930,444.703156 
	C633.160400,492.470245 656.542053,527.590576 696.179199,552.064148 
	C726.045898,570.505066 759.178345,575.752747 793.737122,570.075317 
	C836.018738,563.129028 869.046326,541.704895 891.039612,504.653778 
	C907.053101,477.676514 911.458374,448.634613 903.943298,417.751984 
	C905.184326,418.914551 906.238342,420.243408 906.993042,421.724762 
	C910.087402,427.798340 913.090454,433.918365 916.127136,440.021301 
	C916.127136,440.021301 916.015442,440.007629 915.793701,440.283295 
	C916.088684,441.395416 916.605347,442.231903 917.122009,443.068390 
	C917.122009,443.068390 916.977905,443.038788 916.860474,443.349915 
	C917.254700,446.146606 917.766479,448.632141 918.217224,451.591736 
	C918.492737,454.050079 918.829285,456.034424 919.116760,458.248596 
	C919.067688,458.478455 919.111755,458.946442 919.078613,459.417114 
	C919.470276,478.802673 915.683105,496.864075 909.086243,514.583801 
	C900.993286,536.322144 887.633911,554.554626 871.956482,571.046753 
	C858.357239,585.352600 842.399963,597.024658 824.984741,606.453064 
	C806.504700,616.458069 786.606384,622.370789 765.970032,625.920715 
	C761.449768,626.698364 756.898010,627.582092 752.336243,627.749634 
	C747.560181,627.925049 742.694458,626.680542 737.973755,627.141113 
	C726.199890,628.289795 714.990356,625.860535 703.783386,622.928528 
	C700.174500,621.984253 696.546570,621.112305 692.927368,620.207336 
	C678.685974,602.734924 664.260864,585.407288 650.316589,567.700928 
	C646.197693,562.470825 643.436279,556.171631 639.746521,549.950684 
	C639.047424,549.141174 638.654541,548.743408 638.261658,548.345703 
	C638.175415,548.150024 638.089233,547.954285 638.011536,547.047119 
	C637.639282,546.230591 637.258545,546.125366 636.877747,546.020203 
	C636.877747,546.020203 636.960876,546.020447 637.229492,545.746887 
	C636.955383,544.968262 636.412659,544.463257 635.869995,543.958191 
	C635.869995,543.958191 636.006348,543.979797 636.145508,543.696533 
	C635.481812,542.260620 634.678833,541.108032 633.875916,539.955383 
	C633.875916,539.955383 634.015015,539.972656 634.116882,539.676025 
	C633.769348,538.908020 633.319946,538.436646 632.870544,537.965332 
	C632.870544,537.965332 632.997620,537.982422 633.166992,537.701538 
	C632.259583,535.331787 631.182922,533.242920 630.106201,531.153992 
	C629.780212,530.700317 629.454285,530.246643 629.180420,529.140381 
	C628.779236,527.975952 628.325989,527.464111 627.872742,526.952209 
	C627.872742,526.952209 628.012146,526.973389 628.141174,526.664551 
	C627.139709,523.883911 626.009216,521.412109 624.878723,518.940369 
	C624.878723,518.940369 625.019165,518.964233 625.127319,518.663940 
	C624.782715,517.554810 624.330017,516.745911 623.877258,515.937073 
	C623.877258,515.937073 624.022827,515.962830 624.127563,515.638428 
	C623.180664,512.239197 622.129028,509.164459 621.077454,506.089691 
z"/>
<path fill="#FBFBF9" opacity="1.000000" stroke="none" 
	d="
M916.051270,439.628052 
	C913.090454,433.918365 910.087402,427.798340 906.993042,421.724762 
	C906.238342,420.243408 905.184326,418.914551 903.943298,417.751984 
	C911.458374,448.634613 907.053101,477.676514 891.039612,504.653778 
	C869.046326,541.704895 836.018738,563.129028 793.737122,570.075317 
	C759.178345,575.752747 726.045898,570.505066 696.179199,552.064148 
	C656.542053,527.590576 633.160400,492.470245 632.390930,444.703156 
	C632.243530,435.553619 635.008789,426.357147 636.733032,416.418274 
	C636.929749,414.829529 636.823669,414.004883 636.814575,413.435181 
	C637.069031,413.777710 637.226501,413.865295 637.384033,413.952850 
	C637.162292,413.697601 636.940491,413.442352 636.695190,413.542297 
	C636.367676,414.528137 636.063843,415.158813 635.760010,415.789490 
	C634.694641,417.255585 633.629211,418.721649 632.222961,420.095612 
	C634.012939,416.655396 635.834595,413.046875 638.368652,410.038361 
	C640.549866,407.448730 643.466248,405.437256 646.238647,403.418945 
	C646.839355,402.981659 648.213379,403.606628 649.515320,404.167908 
	C649.341309,406.859802 648.507080,409.122711 648.486938,411.392883 
	C648.368225,424.745087 646.599060,438.428619 648.916748,451.368103 
	C651.750854,467.191223 658.787292,481.849457 668.784668,495.127014 
	C679.575378,509.458191 692.125549,521.249146 708.353271,528.748535 
	C715.622742,532.108032 723.478638,534.198547 731.326660,536.895386 
	C731.741028,536.999329 731.897278,537.072815 732.226196,537.453003 
	C735.169556,538.740356 737.872620,540.219360 740.723938,540.606506 
	C748.761414,541.697998 756.859802,542.341003 765.321716,543.126221 
	C766.482178,543.166321 767.255066,543.240967 768.287109,543.543152 
	C772.474243,543.831360 776.414978,544.124695 780.328003,543.911377 
	C795.160950,543.102905 809.470154,539.901245 823.114075,533.955200 
	C823.873169,533.624390 824.340942,532.625122 825.157166,531.723755 
	C826.120605,531.230957 826.871216,530.951355 827.891968,530.698486 
	C828.418945,530.489319 828.675781,530.253418 829.153198,529.816040 
	C829.918884,529.389282 830.464050,529.164062 831.181763,529.147156 
	C831.873352,528.877136 832.392395,528.398743 832.940308,527.953491 
	C832.969299,527.986694 832.936218,527.905273 833.298950,527.950745 
	C835.108643,527.026367 836.555664,526.056580 838.135498,524.957336 
	C838.268311,524.827881 838.625488,524.727600 838.986816,524.787720 
	C840.567261,523.925354 841.786438,523.002808 843.119995,521.941284 
	C843.234375,521.802246 843.575500,521.686768 843.921021,521.746826 
	C844.826965,521.195435 845.387329,520.583923 845.963623,519.980774 
	C845.979553,519.989136 845.973755,519.953613 846.218018,519.919556 
	C846.783691,519.725098 846.969238,519.467041 847.219849,518.879883 
	C848.258911,518.069275 849.097168,517.490112 850.304382,516.945984 
	C851.685242,515.905823 852.697205,514.830688 853.750061,513.773071 
	C853.791016,513.790527 853.762878,513.705994 854.115356,513.751831 
	C855.943176,512.166016 857.418457,510.534363 859.033936,508.649353 
	C859.757202,507.899170 860.340271,507.402344 861.278137,506.899170 
	C862.673706,505.486206 863.714539,504.079651 864.844604,502.469055 
	C865.098755,502.006165 865.321960,501.815430 865.973511,501.734100 
	C867.488770,500.080688 868.633850,498.385986 869.846985,496.499756 
	C869.915100,496.308228 870.211792,496.030243 870.430786,495.939636 
	C870.913818,495.624664 871.025940,495.340363 870.991943,494.996033 
	C870.997864,494.996002 870.995544,494.982727 871.339355,494.931702 
	C872.034302,494.120697 872.385437,493.360748 872.792542,492.432526 
	C872.848511,492.264252 873.123047,492.039795 873.450134,491.977234 
	C874.110046,491.176819 874.442871,490.438934 874.826904,489.507385 
	C874.878052,489.313751 875.146484,489.016357 875.470154,488.948242 
	C876.106018,488.139008 876.418213,487.397888 876.788330,486.469177 
	C876.846252,486.281586 877.115967,485.996246 877.466248,485.945038 
	C878.529297,484.258209 879.242004,482.622589 879.967651,480.983673 
	C879.980652,480.980377 879.975525,480.954102 880.330933,480.892212 
	C881.029236,479.781525 881.372131,478.732727 881.769775,477.481812 
	C881.824585,477.279663 882.098083,476.962463 882.320923,476.834625 
	C882.618286,476.386719 882.692688,476.066650 882.804260,475.533630 
	C882.841431,475.320679 883.077393,474.958344 883.297546,474.808899 
	C883.578369,474.324402 883.639038,473.989380 883.746765,473.372986 
	C883.949463,472.745941 884.105164,472.400269 884.592041,471.963776 
	C885.877930,468.837585 886.832642,465.802277 887.819824,462.461670 
	C887.997253,461.775055 888.142151,461.393768 888.579224,460.826294 
	C890.227600,455.618439 891.896362,450.654083 892.830200,445.555115 
	C893.454224,442.147186 893.033020,438.547852 893.034729,434.627747 
	C893.068298,433.135803 893.146729,432.050354 893.456909,430.682190 
	C893.529846,428.276123 893.371155,426.152771 893.142883,423.690491 
	C893.090332,422.891846 893.107361,422.432098 893.369751,421.670898 
	C893.648315,419.559723 893.868896,417.729980 893.677734,415.944305 
	C893.202881,411.509155 892.540222,407.094116 891.952942,402.671021 
	C902.720581,407.883392 907.513855,417.846680 911.947388,428.026245 
	C913.529175,431.658264 914.646179,435.492737 916.051270,439.628052 
z"/>
<path fill="#142745" opacity="1.000000" stroke="none" 
	d="
M693.106689,620.477356 
	C696.546570,621.112305 700.174500,621.984253 703.783386,622.928528 
	C714.990356,625.860535 726.199890,628.289795 737.973755,627.141113 
	C742.694458,626.680542 747.560181,627.925049 752.336243,627.749634 
	C756.898010,627.582092 761.449768,626.698364 765.970032,625.920715 
	C786.606384,622.370789 806.504700,616.458069 824.984741,606.453064 
	C842.399963,597.024658 858.357239,585.352600 871.956482,571.046753 
	C887.633911,554.554626 900.993286,536.322144 909.086243,514.583801 
	C915.683105,496.864075 919.470276,478.802673 919.435547,459.606293 
	C920.261108,468.553650 920.696716,477.782501 921.132202,487.011322 
	C921.102173,488.879639 921.222473,490.764435 921.019531,492.613770 
	C918.492859,515.630798 908.942444,536.068726 897.433411,555.700500 
	C887.449890,572.730103 875.480225,588.345459 862.367249,603.089050 
	C851.519043,615.286194 840.792114,627.593323 829.813171,639.671509 
	C820.454468,649.967285 810.756592,659.953918 801.315796,670.176147 
	C793.804871,678.308777 786.455383,686.590576 778.790344,695.387695 
	C777.989197,696.322021 777.431885,696.674744 776.874573,697.027466 
	C776.874573,697.027466 776.947998,696.911072 776.607971,696.918945 
	C776.183411,697.325195 776.098877,697.723450 776.014343,698.121765 
	C776.014343,698.121765 776.017700,698.023315 775.723877,697.759521 
	C771.125244,700.478455 767.027710,698.037720 762.875916,697.016113 
	C762.875916,697.016113 762.999023,697.008301 763.134277,696.668091 
	C762.802490,696.216736 762.335449,696.105469 761.868469,695.994263 
	C761.868469,695.994263 762.004639,695.995056 762.140259,695.659302 
	C761.806885,695.214233 761.337830,695.104919 760.868835,694.995605 
	C760.868835,694.995605 761.003418,694.996277 761.142944,694.663513 
	C760.811157,694.217957 760.339844,694.105225 759.868530,693.992432 
	C759.868530,693.992432 760.008301,693.992615 760.128906,693.641968 
	C759.790466,693.197205 759.331421,693.103027 758.872314,693.008850 
	C758.872314,693.008850 758.996155,693.006714 759.166016,692.641235 
	C758.847961,692.187683 758.360107,692.099548 757.872192,692.011353 
	C757.872192,692.011353 757.992004,692.009460 758.188477,691.624939 
	C757.881775,691.167114 757.378662,691.093872 756.875549,691.020569 
	C756.875549,691.020569 756.948853,691.009521 757.287048,690.833679 
	C757.100525,690.130127 756.575806,689.602417 756.051147,689.074646 
	C754.982727,687.820923 753.968933,686.515564 752.837524,685.321533 
	C741.628662,673.491028 730.281250,661.789124 719.215149,649.826782 
	C710.397583,640.295105 701.916443,630.452148 693.106689,620.477356 
z"/>
<path fill="#F9B507" opacity="1.000000" stroke="none" 
	d="
M776.753601,237.686584 
	C776.830139,237.922394 776.906677,238.158218 777.125061,239.118851 
	C779.863831,245.824783 782.460693,251.805923 785.123962,258.009644 
	C785.321350,258.519348 785.516968,258.752136 785.906738,259.122009 
	C786.036255,259.313385 786.083557,259.773163 786.066406,260.196960 
	C786.405701,262.985138 786.925781,265.341370 787.044373,267.717682 
	C787.097961,268.790527 786.352417,269.903229 785.711975,270.785706 
	C783.333496,267.231079 781.212524,263.888611 779.091553,260.546143 
	C778.883667,281.349457 783.171265,300.857117 793.044189,319.358948 
	C795.723206,325.146729 798.357910,330.575531 800.648193,335.954529 
	C798.563293,333.987091 796.861511,332.032501 795.071533,330.162262 
	C793.279907,328.290222 791.400269,326.502380 788.877808,324.002319 
	C788.153748,327.179657 787.765198,328.884796 787.317627,330.848785 
	C785.987305,330.707611 784.865906,330.444000 783.759216,330.495789 
	C778.503113,330.741821 773.242493,330.981262 768.005310,331.460815 
	C767.066345,331.546783 765.980774,332.583496 765.386719,333.466431 
	C761.624878,339.057922 758.040955,344.769592 754.250732,350.341156 
	C753.495605,351.451172 752.101746,352.126617 751.050903,352.652588 
	C754.398743,345.534760 757.698181,338.766785 761.153198,331.669434 
	C770.139404,310.616943 772.964417,272.673737 765.610840,263.514160 
	C765.219055,264.089050 764.729675,264.580383 764.503052,265.172333 
	C757.417175,283.682007 746.591736,299.801758 733.251343,314.340851 
	C730.708679,317.112030 728.407104,320.104492 725.714722,323.138428 
	C724.286926,324.183777 723.138611,325.085632 722.000732,325.620850 
	C723.643433,322.143646 725.275757,319.033020 726.307312,317.067200 
	C723.753845,313.858795 721.745544,311.335388 719.879150,308.503906 
	C723.180420,304.352783 726.480957,300.616180 729.475037,296.648407 
	C742.888794,278.872467 755.792603,260.784180 763.335815,239.518539 
	C765.647339,233.001953 767.429382,232.146912 774.153748,234.055923 
	C774.532837,234.026291 774.802368,234.183990 775.087158,235.054962 
	C775.725952,236.282776 776.239746,236.984680 776.753601,237.686584 
z"/>
<path fill="#FBEAB2" opacity="1.000000" stroke="none" 
	d="
M731.068420,536.864868 
	C723.478638,534.198547 715.622742,532.108032 708.353271,528.748535 
	C692.125549,521.249146 679.575378,509.458191 668.784668,495.127014 
	C658.787292,481.849457 651.750854,467.191223 648.916748,451.368103 
	C646.599060,438.428619 648.368225,424.745087 648.486938,411.392883 
	C648.507080,409.122711 649.341309,406.859802 649.893005,404.200439 
	C651.068848,393.878967 657.702393,386.436737 661.694031,377.813538 
	C662.513733,376.042755 663.987305,374.574646 665.708862,373.077637 
	C666.258179,373.188232 666.614746,373.454498 666.446472,373.758728 
	C665.078552,376.050201 663.884888,378.041107 662.678284,380.024139 
	C651.218079,398.859100 646.785400,419.216400 649.404114,441.475372 
	C649.564087,442.540344 649.759766,443.239899 649.891785,444.327637 
	C650.193970,445.656677 650.559814,446.597473 650.745544,447.738342 
	C650.642395,448.273926 650.719360,448.609406 650.765564,449.346039 
	C653.412842,457.874603 655.480225,466.267731 658.880310,474.080902 
	C670.271912,500.257629 689.588074,518.657410 715.866821,530.346802 
	C716.709778,530.747620 717.334167,530.899048 717.977478,531.031616 
	C717.996460,531.012756 717.977844,531.063110 718.118774,531.325806 
	C718.826660,531.728210 719.393677,531.868042 719.970093,532.022095 
	C719.979553,532.036316 720.013794,532.036682 720.172058,532.278625 
	C720.885803,532.632019 721.441284,532.743469 722.182861,532.972534 
	C722.369019,533.090088 722.808838,533.070190 723.050293,533.324524 
	C724.184814,533.744995 725.077820,533.911194 725.928101,534.070679 
	C725.885254,534.064087 725.851379,534.143921 726.050537,534.419800 
	C727.855957,535.418701 729.462219,536.141785 731.068420,536.864868 
z"/>
<path fill="#FA9F08" opacity="1.000000" stroke="none" 
	d="
M785.969482,270.997864 
	C786.352417,269.903229 787.097961,268.790527 787.044373,267.717682 
	C786.925781,265.341370 786.405701,262.985138 786.351196,260.402405 
	C788.487427,262.477386 790.321777,264.770721 792.156189,267.064026 
	C797.612549,274.717651 803.068909,282.371277 808.621521,290.684692 
	C811.148071,294.907837 813.578308,298.471222 816.010010,302.443665 
	C816.322327,305.255157 816.633118,307.657532 816.626587,310.010559 
	C815.219543,309.305756 814.129822,308.650330 813.030884,307.988312 
	C813.021545,307.981720 813.017090,307.959320 812.982788,307.645325 
	C812.299866,306.557068 811.651184,305.782806 810.845459,304.711853 
	C807.510193,300.809448 804.014648,297.431885 801.221741,293.549011 
	C795.924988,286.184906 791.030884,278.531250 785.969482,270.997864 
z"/>
<path fill="#FBEAB2" opacity="1.000000" stroke="none" 
	d="
M774.070129,233.641388 
	C767.429382,232.146912 765.647339,233.001953 763.335815,239.518539 
	C755.792603,260.784180 742.888794,278.872467 729.475037,296.648407 
	C726.480957,300.616180 723.180420,304.352783 719.626343,308.624664 
	C718.785645,309.635620 718.339661,310.217743 717.643311,310.921631 
	C717.232788,311.367279 717.072571,311.691162 716.643127,312.212311 
	C711.463928,317.474731 706.553955,322.539886 701.458008,327.430420 
	C701.148010,327.139557 701.023865,327.023346 700.899719,326.907104 
	C703.891541,323.121765 706.528625,318.976440 709.938965,315.615753 
	C722.216003,303.517365 732.307190,289.752655 741.886841,275.511353 
	C750.477478,262.740143 757.853882,249.411804 763.055115,234.887802 
	C764.355042,231.257660 767.045715,228.820709 771.269958,230.079590 
	C772.388794,230.413010 773.092346,232.139832 774.070129,233.641388 
z"/>
<path fill="#FBEAB2" opacity="1.000000" stroke="none" 
	d="
M891.799561,402.355713 
	C892.540222,407.094116 893.202881,411.509155 893.677734,415.944305 
	C893.868896,417.729980 893.648315,419.559723 893.186157,421.325562 
	C891.486633,410.670746 889.711914,400.199829 884.240173,390.472717 
	C883.863281,389.797089 883.524170,389.393677 883.189697,388.932617 
	C883.194214,388.874969 883.088501,388.827911 883.094971,388.548859 
	C882.779358,387.845947 882.457214,387.422058 882.141907,386.945221 
	C882.148682,386.892273 882.051147,386.848877 882.024414,386.511871 
	C880.711182,384.118500 879.424683,382.062103 878.147583,379.948151 
	C878.156921,379.890564 878.051208,379.841003 878.036743,379.547729 
	C877.800171,378.708008 877.578125,378.161591 877.539917,377.439514 
	C877.846191,377.146606 877.968628,377.029297 878.091064,376.911987 
	C882.609497,385.288116 887.127869,393.664246 891.799561,402.355713 
z"/>
<path fill="#FBEAB2" opacity="1.000000" stroke="none" 
	d="
M792.098938,266.672852 
	C790.321777,264.770721 788.487427,262.477386 786.368286,259.978638 
	C786.083557,259.773163 786.036255,259.313385 785.884155,258.881958 
	C785.613586,258.121399 785.388794,257.900238 785.057617,257.787048 
	C782.460693,251.805923 779.863831,245.824783 777.226318,239.476685 
	C778.149658,240.152618 779.406311,241.045517 780.029724,242.262756 
	C784.110168,250.229965 788.053528,258.267273 792.098938,266.672852 
z"/>
<path fill="#FBEAB2" opacity="1.000000" stroke="none" 
	d="
M921.484375,486.818512 
	C920.696716,477.782501 920.261108,468.553650 919.468628,459.135620 
	C919.111755,458.946442 919.067688,458.478455 919.362793,458.164734 
	C919.845459,457.558990 920.033020,457.266968 920.220520,456.974945 
	C920.830994,458.395752 921.951538,459.810638 921.968140,461.238373 
	C922.066223,469.699158 921.908325,478.162933 921.484375,486.818512 
z"/>
<path fill="#FBEAB2" opacity="1.000000" stroke="none" 
	d="
M687.892578,341.899963 
	C692.016907,336.983826 696.141296,332.067719 700.582703,327.029358 
	C701.023865,327.023346 701.148010,327.139557 701.290466,327.716156 
	C697.100647,333.003693 692.892456,337.830902 688.486572,342.468384 
	C688.156738,342.152466 688.024658,342.026245 687.892578,341.899963 
z"/>
<path fill="#FBFBF9" opacity="1.000000" stroke="none" 
	d="
M617.547546,483.340820 
	C618.981689,490.229919 620.039307,497.295441 621.066772,504.797302 
	C618.141235,498.280884 616.498596,491.105103 617.547546,483.340820 
z"/>
<path fill="#FBEAB2" opacity="1.000000" stroke="none" 
	d="
M674.897156,358.905579 
	C677.687256,354.987122 680.477356,351.068665 683.772034,347.205902 
	C684.403687,347.381989 684.530762,347.502411 684.487183,347.911194 
	C681.426514,351.997803 678.536621,355.795990 675.459351,359.422058 
	C675.146973,359.135101 675.022034,359.020325 674.897156,358.905579 
z"/>
<path fill="#FBEAB2" opacity="1.000000" stroke="none" 
	d="
M849.090332,337.913147 
	C852.073242,341.338104 855.056152,344.763062 857.870117,348.737732 
	C857.567871,349.415497 857.434570,349.543488 857.058472,349.454041 
	C854.004944,345.683716 851.194214,342.130890 848.560425,338.411987 
	C848.737244,338.245911 849.090332,337.913147 849.090332,337.913147 
z"/>
<path fill="#FBEAB2" opacity="1.000000" stroke="none" 
	d="
M857.901001,349.095337 
	C861.078186,352.666168 864.055481,356.429108 866.875061,360.729858 
	C866.592957,361.385284 866.468567,361.502960 866.095642,361.409668 
	C862.998535,357.356323 860.149902,353.513916 857.301270,349.671509 
	C857.434570,349.543488 857.567871,349.415497 857.901001,349.095337 
z"/>
<path fill="#FBEAB2" opacity="1.000000" stroke="none" 
	d="
M816.008545,302.034607 
	C813.578308,298.471222 811.148071,294.907837 808.788086,290.950928 
	C811.918457,294.102020 814.978638,297.646606 817.891724,301.747986 
	C817.631653,302.438751 817.518677,302.572784 817.181274,302.572083 
	C816.640747,302.303131 816.324646,302.168854 816.008545,302.034607 
z"/>
<path fill="#FBEAB2" opacity="1.000000" stroke="none" 
	d="
M866.903687,361.090942 
	C869.405090,364.004944 871.720154,367.095703 873.876221,370.728333 
	C873.592834,371.389008 873.468323,371.507843 873.120178,371.444824 
	C872.344177,370.736053 871.791870,370.209076 871.175537,369.456848 
	C871.111511,369.231598 870.760925,368.921051 870.681519,368.605530 
	C869.182800,366.066864 867.763428,363.843750 866.344116,361.620605 
	C866.468567,361.502960 866.592957,361.385284 866.903687,361.090942 
z"/>
<path fill="#FBFBF9" opacity="1.000000" stroke="none" 
	d="
M763.025024,697.370117 
	C767.027710,698.037720 771.125244,700.478455 775.772949,697.763794 
	C771.723816,701.214844 767.416077,700.851868 763.025024,697.370117 
z"/>
<path fill="#FBEAB2" opacity="1.000000" stroke="none" 
	d="
M842.082458,329.919922 
	C844.398743,332.345520 846.715027,334.771118 849.060791,337.554932 
	C849.090332,337.913147 848.737244,338.245911 848.306396,338.211945 
	C845.733582,335.631744 843.591553,333.085480 841.607727,330.384338 
	C841.765930,330.229492 842.082458,329.919891 842.082458,329.919922 
z"/>
<path fill="#FBEAB2" opacity="1.000000" stroke="none" 
	d="
M829.097534,314.905426 
	C831.078064,317.001434 833.058655,319.097473 834.902222,321.730957 
	C834.765198,322.268433 834.448120,322.628723 834.169922,322.449219 
	C832.029846,320.072968 830.167908,317.876221 828.503845,315.485901 
	C828.833618,315.163361 828.965576,315.034393 829.097534,314.905426 
z"/>
<path fill="#FBFBF9" opacity="1.000000" stroke="none" 
	d="
M918.278198,451.117706 
	C917.766479,448.632141 917.254700,446.146606 916.871826,443.277252 
	C917.886292,445.491669 918.771851,448.089905 919.467407,450.901733 
	C918.944397,451.116119 918.611267,451.116913 918.278198,451.117706 
z"/>
<path fill="#FBFBF9" opacity="1.000000" stroke="none" 
	d="
M621.072876,506.496399 
	C622.129028,509.164459 623.180664,512.239197 624.117981,515.711670 
	C623.025269,513.040649 622.046814,509.971893 621.072876,506.496399 
z"/>
<path fill="#FBEAB2" opacity="1.000000" stroke="none" 
	d="
M837.104858,323.896362 
	C838.749329,325.673004 840.393738,327.449646 842.060303,329.573090 
	C842.082458,329.919891 841.765930,330.229492 841.344238,330.195435 
	C839.351318,328.326569 837.779968,326.491791 836.434570,324.469055 
	C836.808655,324.152893 836.956726,324.024658 837.104858,323.896362 
z"/>
<path fill="#FBEAB2" opacity="1.000000" stroke="none" 
	d="
M824.105530,308.896698 
	C825.750061,310.669312 827.394653,312.441956 829.068359,314.559998 
	C828.965576,315.034393 828.833618,315.163361 828.244324,315.289032 
	C826.245911,313.420563 824.704834,311.555420 823.401001,309.494080 
	C823.794006,309.164154 823.949768,309.030426 824.105530,308.896698 
z"/>
<path fill="#142745" opacity="1.000000" stroke="none" 
	d="
M918.217224,451.591736 
	C918.611267,451.116913 918.944397,451.116119 919.487915,451.254303 
	C919.816040,452.948975 919.933716,454.504608 920.135925,456.517609 
	C920.033020,457.266968 919.845459,457.558990 919.411865,457.934875 
	C918.829285,456.034424 918.492737,454.050079 918.217224,451.591736 
z"/>
<path fill="#FBEAB2" opacity="1.000000" stroke="none" 
	d="
M819.105103,302.897278 
	C820.353516,304.355804 821.601868,305.814331 822.790283,307.804443 
	C822.610107,308.484985 822.489807,308.633972 822.074646,308.605286 
	C820.567017,306.850433 819.354248,305.273315 818.384399,303.498840 
	C818.786560,303.166718 818.945862,303.031982 819.105103,302.897278 
z"/>
<path fill="#FBFBF9" opacity="1.000000" stroke="none" 
	d="
M624.964661,519.330505 
	C626.009216,521.412109 627.139709,523.883911 628.132812,526.734497 
	C627.013855,524.649170 626.032227,522.184875 624.964661,519.330505 
z"/>
<path fill="#FBFBF9" opacity="1.000000" stroke="none" 
	d="
M630.092285,531.534790 
	C631.182922,533.242920 632.259583,535.331787 633.159180,537.765259 
	C632.014160,536.045044 631.046265,533.980286 630.092285,531.534790 
z"/>
<path fill="#FBEAB2" opacity="1.000000" stroke="none" 
	d="
M670.917725,364.925354 
	C672.030396,363.003143 673.143005,361.080902 674.576416,359.032104 
	C675.022034,359.020325 675.146973,359.135101 675.310181,359.682526 
	C675.211304,360.694794 675.074158,361.274445 674.653137,362.016052 
	C673.401550,363.260071 672.433838,364.342133 671.329102,365.299438 
	C671.192017,365.174713 670.917725,364.925354 670.917725,364.925354 
z"/>
<path fill="#FBEAB2" opacity="1.000000" stroke="none" 
	d="
M873.903931,371.091858 
	C875.403076,372.677155 876.715576,374.440765 878.059570,376.558167 
	C877.968628,377.029297 877.846191,377.146606 877.364075,377.297852 
	C876.819153,377.060913 876.562622,376.929779 876.220032,376.881134 
	C876.205383,376.823792 876.088135,376.807709 876.067139,376.508942 
	C875.424744,375.465607 874.803406,374.721039 874.190491,373.908569 
	C874.198853,373.840668 874.074707,373.783020 874.055725,373.498718 
	C873.805786,372.685150 873.574829,372.155914 873.343872,371.626678 
	C873.468323,371.507843 873.592834,371.389008 873.903931,371.091858 
z"/>
<path fill="#FBEAB2" opacity="1.000000" stroke="none" 
	d="
M666.895386,370.905884 
	C668.021057,368.992950 669.146667,367.080017 670.594971,365.046204 
	C670.917725,364.925354 671.192017,365.174713 671.216492,365.600769 
	C670.052429,367.887299 668.863892,369.747772 667.480347,371.432678 
	C667.155334,371.140045 667.025330,371.022980 666.895386,370.905884 
z"/>
<path fill="#FBEAB2" opacity="1.000000" stroke="none" 
	d="
M684.086365,347.080566 
	C685.020630,345.316406 686.145142,343.733215 687.581055,342.025024 
	C688.024658,342.026245 688.156738,342.152466 688.302307,342.731506 
	C687.096497,344.663818 685.877197,346.143341 684.657898,347.622833 
	C684.530762,347.502411 684.403687,347.381989 684.086365,347.080566 
z"/>
<path fill="#FBFBF9" opacity="1.000000" stroke="none" 
	d="
M633.951172,540.316040 
	C634.678833,541.108032 635.481812,542.260620 636.136108,543.764893 
	C635.333862,542.969971 634.680115,541.823303 633.951172,540.316040 
z"/>
<path fill="#FBFBF9" opacity="1.000000" stroke="none" 
	d="
M631.644775,420.024841 
	C631.560974,421.159424 631.148438,422.424347 630.405884,423.815155 
	C630.489197,422.679108 630.902588,421.417114 631.644775,420.024841 
z"/>
<path fill="#FBEAB2" opacity="1.000000" stroke="none" 
	d="
M776.632629,237.439331 
	C776.239746,236.984680 775.725952,236.282776 775.137451,235.298248 
	C775.545776,235.741104 776.028748,236.466599 776.632629,237.439331 
z"/>
<path fill="#FBFBF9" opacity="1.000000" stroke="none" 
	d="
M623.962769,516.300293 
	C624.330017,516.745911 624.782715,517.554810 625.118408,518.734619 
	C624.683716,518.291565 624.366028,517.477478 623.962769,516.300293 
z"/>
<path fill="#FBFBF9" opacity="1.000000" stroke="none" 
	d="
M638.437744,548.470764 
	C638.654541,548.743408 639.047424,549.141174 639.649292,549.589966 
	C639.443420,549.292603 639.028687,548.944214 638.437744,548.470764 
z"/>
<path fill="#FBFBF9" opacity="1.000000" stroke="none" 
	d="
M777.005859,696.814453 
	C777.431885,696.674744 777.989197,696.322021 778.610718,695.710999 
	C778.162354,695.835632 777.649719,696.218567 777.005859,696.814453 
z"/>
<path fill="#FBFBF9" opacity="1.000000" stroke="none" 
	d="
M917.033081,442.708801 
	C916.605347,442.231903 916.088684,441.395416 915.801208,440.227539 
	C916.334961,440.713806 916.639587,441.531494 917.033081,442.708801 
z"/>
<path fill="#FBFBF9" opacity="1.000000" stroke="none" 
	d="
M635.937683,544.284180 
	C636.412659,544.463257 636.955383,544.968262 637.225708,545.788330 
	C636.637329,545.605591 636.321350,545.107910 635.937683,544.284180 
z"/>
<path fill="#FBFBF9" opacity="1.000000" stroke="none" 
	d="
M756.040466,689.389404 
	C756.575806,689.602417 757.100525,690.130127 757.280396,690.870117 
	C756.633667,690.623047 756.331726,690.163574 756.040466,689.389404 
z"/>
<path fill="#FBFBF9" opacity="1.000000" stroke="none" 
	d="
M632.951660,538.294189 
	C633.319946,538.436646 633.769348,538.908020 634.110718,539.745789 
	C633.679321,539.615845 633.356018,539.119385 632.951660,538.294189 
z"/>
<path fill="#FBFBF9" opacity="1.000000" stroke="none" 
	d="
M627.952148,527.292480 
	C628.325989,527.464111 628.779236,527.975952 629.129150,528.865356 
	C628.694397,528.706177 628.362915,528.169495 627.952148,527.292480 
z"/>
<path fill="#FBEAB2" opacity="1.000000" stroke="none" 
	d="
M666.082031,373.052185 
	C666.040222,372.319122 666.174561,371.722107 666.602112,371.015472 
	C667.025330,371.022980 667.155334,371.140045 667.348206,371.663086 
	C667.145630,372.530884 666.880188,372.992676 666.614746,373.454468 
	C666.614746,373.454498 666.258179,373.188232 666.082031,373.052185 
z"/>
<path fill="#FBFBF9" opacity="1.000000" stroke="none" 
	d="
M756.961304,691.290649 
	C757.378662,691.093872 757.881775,691.167114 758.188354,691.684875 
	C757.676941,691.939819 757.362000,691.750305 756.961304,691.290649 
z"/>
<path fill="#FBFBF9" opacity="1.000000" stroke="none" 
	d="
M757.958496,692.283936 
	C758.360107,692.099548 758.847961,692.187683 759.166504,692.703186 
	C758.679626,692.939209 758.362244,692.747864 757.958496,692.283936 
z"/>
<path fill="#FBFBF9" opacity="1.000000" stroke="none" 
	d="
M758.959412,693.283813 
	C759.331421,693.103027 759.790466,693.197205 760.129822,693.711914 
	C759.688904,693.941162 759.367737,693.749939 758.959412,693.283813 
z"/>
<path fill="#FBFBF9" opacity="1.000000" stroke="none" 
	d="
M759.954224,694.269775 
	C760.339844,694.105225 760.811157,694.217957 761.143066,694.730774 
	C760.682495,694.936218 760.361206,694.741638 759.954224,694.269775 
z"/>
<path fill="#FBFBF9" opacity="1.000000" stroke="none" 
	d="
M760.954956,695.272461 
	C761.337830,695.104919 761.806885,695.214233 762.140503,695.727356 
	C761.683716,695.937195 761.362427,695.743225 760.954956,695.272461 
z"/>
<path fill="#FBFBF9" opacity="1.000000" stroke="none" 
	d="
M761.954651,696.271423 
	C762.335449,696.105469 762.802490,696.216736 763.137573,696.729675 
	C762.684143,696.937134 762.362488,696.742859 761.954651,696.271423 
z"/>
<path fill="#FBFBF9" opacity="1.000000" stroke="none" 
	d="
M636.970459,546.289551 
	C637.258545,546.125366 637.639282,546.230591 638.019775,546.726440 
	C637.700745,546.930969 637.381958,546.744934 636.970459,546.289551 
z"/>
<path fill="#FBFBF9" opacity="1.000000" stroke="none" 
	d="
M776.288757,698.035645 
	C776.098877,697.723450 776.183411,697.325195 776.670166,696.948242 
	C776.902710,697.296265 776.732971,697.622925 776.288757,698.035645 
z"/>
<path fill="#FBEAB2" opacity="1.000000" stroke="none" 
	d="
M817.916931,302.106049 
	C818.376648,302.073883 818.664124,302.240387 819.028320,302.652100 
	C818.945862,303.031982 818.786560,303.166718 818.235046,303.354858 
	C817.658875,303.198242 817.513184,302.964417 817.405762,302.706787 
	C817.518677,302.572784 817.631653,302.438751 817.916931,302.106049 
z"/>
<path fill="#FBEAB2" opacity="1.000000" stroke="none" 
	d="
M822.914795,308.115875 
	C823.385498,308.065338 823.671692,308.234924 824.031738,308.650604 
	C823.949768,309.030426 823.794006,309.164154 823.249268,309.360657 
	C822.670227,309.230225 822.506653,309.016724 822.369446,308.782959 
	C822.489807,308.633972 822.610107,308.484985 822.914795,308.115875 
z"/>
<path fill="#FBEAB2" opacity="1.000000" stroke="none" 
	d="
M834.925781,322.090088 
	C835.374756,322.077393 835.663147,322.243042 835.824829,322.858856 
	C835.565247,323.444580 835.432434,323.580170 835.127319,323.559662 
	C834.745422,323.171906 834.576416,322.913635 834.448120,322.628723 
	C834.448120,322.628723 834.765198,322.268433 834.925781,322.090088 
z"/>
<path fill="#FBEAB2" opacity="1.000000" stroke="none" 
	d="
M835.898071,323.106354 
	C836.382324,323.072418 836.666504,323.241150 837.027832,323.653137 
	C836.956726,324.024658 836.808655,324.152893 836.261597,324.334045 
	C835.638672,324.193726 835.450928,323.970001 835.299561,323.715790 
	C835.432434,323.580170 835.565247,323.444580 835.898071,323.106354 
z"/>
<path fill="#F86009" opacity="1.000000" stroke="none" 
	d="
M884.278015,390.744934 
	C889.711914,400.199829 891.486633,410.670746 892.940796,421.627014 
	C893.107361,422.432098 893.090332,422.891846 893.025513,424.111298 
	C893.060181,426.902283 893.142700,428.933594 893.225220,430.964874 
	C893.146729,432.050354 893.068298,433.135803 892.833740,434.969788 
	C891.214172,444.149719 889.750671,452.581116 888.287109,461.012512 
	C888.142151,461.393768 887.997253,461.775055 887.553955,462.696503 
	C886.257324,466.175995 885.259033,469.115295 884.260803,472.054626 
	C884.105164,472.400269 883.949463,472.745941 883.521729,473.515930 
	C883.192200,474.279633 883.134827,474.618988 883.077393,474.958344 
	C883.077393,474.958344 882.841431,475.320679 882.579163,475.658020 
	C882.243958,476.317749 882.171021,476.640106 882.098083,476.962463 
	C882.098083,476.962463 881.824585,477.279663 881.500122,477.657379 
	C880.775635,479.008118 880.375610,479.981110 879.975525,480.954102 
	C879.975525,480.954102 879.980652,480.980377 879.675171,481.131500 
	C878.618469,482.853821 877.867188,484.425049 877.115967,485.996246 
	C877.115967,485.996246 876.846252,486.281586 876.510864,486.594635 
	C875.832520,487.610565 875.489502,488.313477 875.146484,489.016357 
	C875.146484,489.016357 874.878052,489.313751 874.548218,489.631287 
	C873.853210,490.645782 873.488159,491.342804 873.123047,492.039795 
	C873.123047,492.039795 872.848511,492.264252 872.505005,492.560242 
	C871.772888,493.565033 871.384216,494.273865 870.995544,494.982727 
	C870.995544,494.982727 870.997864,494.996002 870.754089,495.069336 
	C870.198303,495.367035 870.098755,495.662872 870.211792,496.030243 
	C870.211792,496.030243 869.915100,496.308228 869.544067,496.628479 
	C867.983215,498.530090 866.793274,500.111450 865.603394,501.692810 
	C865.321960,501.815430 865.098755,502.006165 864.533936,502.572205 
	C863.063782,504.221466 861.993591,505.563507 860.923340,506.905518 
	C860.340271,507.402344 859.757202,507.899170 858.712158,508.713013 
	C856.754333,510.588684 855.258606,512.147339 853.762878,513.705994 
	C853.762878,513.705994 853.791016,513.790527 853.443848,513.843994 
	C852.042908,514.902039 850.989197,515.906555 849.935425,516.911011 
	C849.097168,517.490112 848.258911,518.069275 846.964966,518.893555 
	C846.330750,519.410400 846.152222,519.682007 845.973755,519.953613 
	C845.973755,519.953613 845.979553,519.989136 845.654907,520.003296 
	C844.745361,520.573914 844.160400,521.130310 843.575439,521.686768 
	C843.575500,521.686768 843.234375,521.802246 842.789062,521.965820 
	C841.104309,522.995544 839.864929,523.861572 838.625488,524.727600 
	C838.625488,524.727600 838.268311,524.827881 837.800537,524.966431 
	C835.867188,526.038391 834.401672,526.971802 832.936218,527.905273 
	C832.936218,527.905273 832.969299,527.986694 832.648193,527.943848 
	C831.887817,528.246887 831.448486,528.592834 831.009216,528.938782 
	C830.464050,529.164062 829.918884,529.389282 828.886047,529.801514 
	C828.139526,530.216248 827.880676,530.443970 827.621826,530.671692 
	C826.871216,530.951355 826.120605,531.230957 824.776367,531.721619 
	C814.361450,534.882080 804.678772,538.496704 794.677063,540.579773 
	C785.981262,542.390808 776.924927,542.470703 768.027954,543.315552 
	C767.255066,543.240967 766.482178,543.166321 764.981201,542.931030 
	C753.519897,540.895752 742.786682,539.020996 732.053528,537.146301 
	C731.897278,537.072815 731.741028,536.999329 731.326660,536.895386 
	C729.462219,536.141785 727.855957,535.418701 726.521545,534.376099 
	C736.189575,534.363586 745.585815,534.670593 755.429810,534.984863 
	C760.251770,534.327271 764.625854,533.662415 769.431580,532.997070 
	C774.559692,532.177490 779.256287,531.358459 783.952820,530.539429 
	C783.862488,530.064697 783.772095,529.589966 783.681763,529.115234 
	C780.456177,528.746582 777.230530,528.377930 774.019043,527.638672 
	C776.223267,525.794861 778.443115,524.364075 780.598145,522.841492 
	C790.417908,515.903748 800.147827,508.836273 810.047119,502.014313 
	C820.686035,494.682556 830.641357,486.694855 838.982544,476.676880 
	C844.674255,469.841003 851.287903,463.781647 857.251282,457.160675 
	C862.649719,451.166840 868.339600,445.163940 867.166260,435.634033 
	C867.544128,426.505554 867.760681,417.746460 867.966187,408.582794 
	C866.642639,401.120941 865.330200,394.063690 864.367798,386.913391 
	C866.106201,384.573059 867.070679,380.957336 868.972778,380.368103 
	C872.737732,379.201752 872.982544,376.982025 873.242676,373.984924 
	C873.707336,373.883514 873.891052,373.833282 874.074707,373.783020 
	C874.074707,373.783020 874.198853,373.840668 874.175049,374.223999 
	C874.796936,375.340790 875.442505,376.074249 876.088135,376.807709 
	C876.088135,376.807709 876.205383,376.823792 876.162720,377.226868 
	C876.763794,378.366943 877.407532,379.103973 878.051208,379.841003 
	C878.051208,379.841003 878.156921,379.890564 878.109619,380.326538 
	C879.391907,382.791290 880.721558,384.820099 882.051147,386.848877 
	C882.051147,386.848877 882.148682,386.892273 882.137573,387.227356 
	C882.447205,387.984283 882.767822,388.406097 883.088501,388.827911 
	C883.088501,388.827911 883.194214,388.874969 883.182373,389.225677 
	C883.539673,389.965881 883.908813,390.355408 884.278015,390.744934 
z"/>
<path fill="#FBEAB2" opacity="1.000000" stroke="none" 
	d="
M768.287109,543.543152 
	C776.924927,542.470703 785.981262,542.390808 794.677063,540.579773 
	C804.678772,538.496704 814.361450,534.882080 824.563538,531.934814 
	C824.340942,532.625122 823.873169,533.624390 823.114075,533.955200 
	C809.470154,539.901245 795.160950,543.102905 780.328003,543.911377 
	C776.414978,544.124695 772.474243,543.831360 768.287109,543.543152 
z"/>
<path fill="#FBEAB2" opacity="1.000000" stroke="none" 
	d="
M732.226196,537.453003 
	C742.786682,539.020996 753.519897,540.895752 764.593628,542.965576 
	C756.859802,542.341003 748.761414,541.697998 740.723938,540.606506 
	C737.872620,540.219360 735.169556,538.740356 732.226196,537.453003 
z"/>
<path fill="#FBEAB2" opacity="1.000000" stroke="none" 
	d="
M888.579224,460.826294 
	C889.750671,452.581116 891.214172,444.149719 892.878662,435.376251 
	C893.033020,438.547852 893.454224,442.147186 892.830200,445.555115 
	C891.896362,450.654083 890.227600,455.618439 888.579224,460.826294 
z"/>
<path fill="#FBEAB2" opacity="1.000000" stroke="none" 
	d="
M884.592041,471.963776 
	C885.259033,469.115295 886.257324,466.175995 887.521484,463.001831 
	C886.832642,465.802277 885.877930,468.837585 884.592041,471.963776 
z"/>
<path fill="#FBEAB2" opacity="1.000000" stroke="none" 
	d="
M854.115356,513.751831 
	C855.258606,512.147339 856.754333,510.588684 858.571899,508.966370 
	C857.418457,510.534363 855.943176,512.166016 854.115356,513.751831 
z"/>
<path fill="#FBEAB2" opacity="1.000000" stroke="none" 
	d="
M865.973511,501.734100 
	C866.793274,500.111450 867.983215,498.530090 869.475952,496.820007 
	C868.633850,498.385986 867.488770,500.080688 865.973511,501.734100 
z"/>
<path fill="#FBEAB2" opacity="1.000000" stroke="none" 
	d="
M861.278137,506.899139 
	C861.993591,505.563507 863.063782,504.221466 864.444702,502.776276 
	C863.714539,504.079651 862.673706,505.486206 861.278137,506.899139 
z"/>
<path fill="#FBEAB2" opacity="1.000000" stroke="none" 
	d="
M877.466248,485.945038 
	C877.867188,484.425049 878.618469,482.853821 879.662231,481.134796 
	C879.242004,482.622589 878.529297,484.258209 877.466248,485.945038 
z"/>
<path fill="#FBEAB2" opacity="1.000000" stroke="none" 
	d="
M833.298950,527.950745 
	C834.401672,526.971802 835.867188,526.038391 837.667725,525.095886 
	C836.555664,526.056580 835.108643,527.026367 833.298950,527.950745 
z"/>
<path fill="#FBEAB2" opacity="1.000000" stroke="none" 
	d="
M838.986816,524.787720 
	C839.864929,523.861572 841.104309,522.995544 842.674622,522.104858 
	C841.786438,523.002808 840.567261,523.925354 838.986816,524.787720 
z"/>
<path fill="#FBEAB2" opacity="1.000000" stroke="none" 
	d="
M850.304382,516.945984 
	C850.989197,515.906555 852.042908,514.902039 853.402832,513.826538 
	C852.697205,514.830688 851.685242,515.905823 850.304382,516.945984 
z"/>
<path fill="#FBEAB2" opacity="1.000000" stroke="none" 
	d="
M893.456909,430.682190 
	C893.142700,428.933594 893.060181,426.902283 893.095093,424.450195 
	C893.371155,426.152771 893.529846,428.276123 893.456909,430.682190 
z"/>
<path fill="#FBEAB2" opacity="1.000000" stroke="none" 
	d="
M880.330933,480.892212 
	C880.375610,479.981110 880.775635,479.008118 881.445312,477.859497 
	C881.372131,478.732727 881.029236,479.781525 880.330933,480.892212 
z"/>
<path fill="#FBEAB2" opacity="1.000000" stroke="none" 
	d="
M831.181763,529.147156 
	C831.448486,528.592834 831.887817,528.246887 832.619263,527.910645 
	C832.392395,528.398743 831.873352,528.877136 831.181763,529.147156 
z"/>
<path fill="#FBEAB2" opacity="1.000000" stroke="none" 
	d="
M843.921021,521.746826 
	C844.160400,521.130310 844.745361,520.573914 845.638977,519.994995 
	C845.387329,520.583923 844.826965,521.195435 843.921021,521.746826 
z"/>
<path fill="#FBEAB2" opacity="1.000000" stroke="none" 
	d="
M875.470154,488.948242 
	C875.489502,488.313477 875.832520,487.610565 876.453003,486.782227 
	C876.418213,487.397888 876.106018,488.139008 875.470154,488.948242 
z"/>
<path fill="#FBEAB2" opacity="1.000000" stroke="none" 
	d="
M873.450134,491.977234 
	C873.488159,491.342804 873.853210,490.645782 874.497009,489.824890 
	C874.442871,490.438934 874.110046,491.176819 873.450134,491.977234 
z"/>
<path fill="#FBEAB2" opacity="1.000000" stroke="none" 
	d="
M871.339355,494.931702 
	C871.384216,494.273865 871.772888,493.565033 872.449097,492.728516 
	C872.385437,493.360748 872.034302,494.120697 871.339355,494.931702 
z"/>
<path fill="#1B315B" opacity="1.000000" stroke="none" 
	d="
M636.717590,413.180206 
	C636.823669,414.004883 636.929749,414.829529 636.835510,416.041870 
	C636.485962,416.327545 636.336670,416.225555 635.973694,415.956512 
	C636.063843,415.158813 636.367676,414.528137 636.709595,413.587646 
	C636.747681,413.277771 636.717590,413.180206 636.717590,413.180206 
z"/>
<path fill="#FBEAB2" opacity="1.000000" stroke="none" 
	d="
M827.891968,530.698486 
	C827.880676,530.443970 828.139526,530.216248 828.665527,530.003052 
	C828.675781,530.253418 828.418945,530.489319 827.891968,530.698486 
z"/>
<path fill="#FBEAB2" opacity="1.000000" stroke="none" 
	d="
M846.218018,519.919556 
	C846.152222,519.682007 846.330750,519.410400 846.764160,519.125061 
	C846.969238,519.467041 846.783691,519.725098 846.218018,519.919556 
z"/>
<path fill="#FBEAB2" opacity="1.000000" stroke="none" 
	d="
M870.430786,495.939636 
	C870.098755,495.662872 870.198303,495.367035 870.748169,495.069397 
	C871.025940,495.340363 870.913818,495.624664 870.430786,495.939636 
z"/>
<path fill="#FBEAB2" opacity="1.000000" stroke="none" 
	d="
M882.320923,476.834625 
	C882.171021,476.640106 882.243958,476.317749 882.541992,475.870972 
	C882.692688,476.066650 882.618286,476.386719 882.320923,476.834625 
z"/>
<path fill="#FBEAB2" opacity="1.000000" stroke="none" 
	d="
M883.297546,474.808899 
	C883.134827,474.618988 883.192200,474.279633 883.474609,473.797302 
	C883.639038,473.989380 883.578369,474.324402 883.297546,474.808899 
z"/>
<path fill="#1B315B" opacity="1.000000" stroke="none" 
	d="
M636.733215,413.232422 
	C636.940491,413.442352 637.162292,413.697601 637.384033,413.952850 
	C637.226501,413.865295 637.069031,413.777710 636.814575,413.435181 
	C636.717590,413.180206 636.747681,413.277771 636.733215,413.232422 
z"/>
<path fill="#FDA803" opacity="1.000000" stroke="none" 
	d="
M751.002441,353.002441 
	C752.101746,352.126617 753.495605,351.451172 754.250732,350.341156 
	C758.040955,344.769592 761.624878,339.057922 765.386719,333.466431 
	C765.980774,332.583496 767.066345,331.546783 768.005310,331.460815 
	C773.242493,330.981262 778.503113,330.741821 783.759216,330.495789 
	C784.865906,330.444000 785.987305,330.707611 787.317627,330.848785 
	C787.765198,328.884796 788.153748,327.179657 788.877808,324.002319 
	C791.400269,326.502380 793.279907,328.290222 795.071533,330.162262 
	C796.861511,332.032501 798.563293,333.987091 800.764893,336.208344 
	C801.493042,337.002167 801.760193,337.492310 802.066833,338.333649 
	C806.067688,345.792297 810.028931,352.899811 813.649292,359.955841 
	C810.886658,357.594940 808.465027,355.285492 806.443481,353.357605 
	C803.585876,355.336884 801.453064,357.146790 799.038513,358.424164 
	C791.768066,362.270447 784.007080,365.329498 777.173767,369.816833 
	C771.914246,373.270660 766.513916,371.704315 761.210693,372.506866 
	C759.353760,372.787903 756.810608,373.013763 755.556763,372.026031 
	C750.130432,367.751556 744.777161,367.051239 739.024475,370.623566 
	C742.057251,365.522705 745.039612,360.771027 748.290833,355.867249 
	C749.373962,354.810944 750.188232,353.906708 751.002441,353.002441 
z"/>
<path fill="#FDDF04" opacity="1.000000" stroke="none" 
	d="
M725.994263,322.994873 
	C728.407104,320.104492 730.708679,317.112030 733.251343,314.340851 
	C746.591736,299.801758 757.417175,283.682007 764.503052,265.172333 
	C764.729675,264.580383 765.219055,264.089050 765.610840,263.514160 
	C772.964417,272.673737 770.139404,310.616943 760.819397,331.735840 
	C758.990295,333.773346 757.854736,335.672485 756.232849,336.958374 
	C755.289246,337.706543 753.321106,338.048065 752.232971,337.585938 
	C744.779358,334.420105 737.079224,333.685699 729.290466,335.416290 
	C723.839783,336.627411 719.235962,334.555939 719.127869,329.739655 
	C719.835632,328.983826 720.412109,328.486603 721.361206,327.984833 
	C723.153931,326.318481 724.574097,324.656677 725.994263,322.994873 
z"/>
<path fill="#FDA803" opacity="1.000000" stroke="none" 
	d="
M720.988586,327.989380 
	C720.412109,328.486603 719.835632,328.983826 718.833435,329.891785 
	C715.934692,332.864960 713.461731,335.427460 710.695557,338.149292 
	C705.850708,343.679260 701.036560,348.852509 696.812439,354.469513 
	C691.302795,361.796051 686.260681,369.474274 680.788635,376.771118 
	C680.738525,375.624603 680.748108,374.630524 681.126404,373.805573 
	C682.437195,370.947662 682.164856,369.197601 678.908081,367.584381 
	C677.085449,366.681580 676.228882,363.828430 674.937012,361.854095 
	C675.074158,361.274445 675.211304,360.694794 675.497559,359.854675 
	C678.536621,355.795990 681.426514,351.997803 684.487183,347.911194 
	C685.877197,346.143341 687.096497,344.663818 688.500000,342.921204 
	C692.892456,337.830902 697.100647,333.003693 701.476440,327.890778 
	C706.553955,322.539886 711.463928,317.474731 716.875977,312.071167 
	C717.549988,311.421783 717.721802,311.110809 717.893616,310.799835 
	C718.339661,310.217743 718.785645,309.635620 719.484497,308.932739 
	C721.745544,311.335388 723.753845,313.858795 726.307312,317.067200 
	C725.275757,319.033020 723.643433,322.143646 721.886597,325.876831 
	C721.504150,326.996063 721.246338,327.492706 720.988586,327.989380 
z"/>
<path fill="#FED005" opacity="1.000000" stroke="none" 
	d="
M710.988708,337.989960 
	C713.461731,335.427460 715.934692,332.864960 718.702148,330.150391 
	C719.235962,334.555939 723.839783,336.627411 729.290466,335.416290 
	C737.079224,333.685699 744.779358,334.420105 752.232971,337.585938 
	C753.321106,338.048065 755.289246,337.706543 756.232849,336.958374 
	C757.854736,335.672485 758.990295,333.773346 760.663818,332.065216 
	C757.698181,338.766785 754.398743,345.534760 751.050903,352.652618 
	C750.188232,353.906708 749.373962,354.810944 747.927124,355.912781 
	C743.271484,359.334290 738.903198,359.339813 734.283081,357.614441 
	C730.899597,356.350891 727.476807,355.187286 724.045349,354.058777 
	C718.414795,352.207031 712.762939,350.419891 706.925476,348.542969 
	C708.451233,344.580292 709.719971,341.285126 710.988708,337.989960 
z"/>
<path fill="#FDDF04" opacity="1.000000" stroke="none" 
	d="
M785.711975,270.785706 
	C791.030884,278.531250 795.924988,286.184906 801.221741,293.549011 
	C804.014648,297.431885 807.510193,300.809448 810.852722,305.058685 
	C811.683655,306.454559 812.350403,307.206940 813.017090,307.959320 
	C813.017090,307.959320 813.021545,307.981720 813.002808,308.354645 
	C811.793701,309.910187 810.740967,311.291260 809.383606,312.233246 
	C806.732178,314.073242 803.412292,315.202728 801.284973,317.481354 
	C798.607117,320.349640 796.217529,320.937317 793.000000,319.000000 
	C783.171265,300.857117 778.883667,281.349457 779.091553,260.546143 
	C781.212524,263.888611 783.333496,267.231079 785.711975,270.785706 
z"/>
<path fill="#FED005" opacity="1.000000" stroke="none" 
	d="
M793.044189,319.358948 
	C796.217529,320.937317 798.607117,320.349640 801.284973,317.481354 
	C803.412292,315.202728 806.732178,314.073242 809.383606,312.233246 
	C810.740967,311.291260 811.793701,309.910187 813.012146,308.361237 
	C814.129822,308.650330 815.219543,309.305756 816.869141,310.207977 
	C818.278687,311.652588 819.128296,312.850403 819.990295,314.415100 
	C820.692993,316.254028 821.603455,317.668762 822.005493,319.215668 
	C822.340820,320.505707 822.649841,322.375153 821.991577,323.258392 
	C817.589355,329.164917 812.924805,334.875885 808.205688,340.826508 
	C806.146484,339.878601 804.086853,338.930542 802.027283,337.982483 
	C801.760193,337.492310 801.493042,337.002167 801.109314,336.258179 
	C798.357910,330.575531 795.723206,325.146729 793.044189,319.358948 
z"/>
<path fill="#FED005" opacity="1.000000" stroke="none" 
	d="
M721.361206,327.984833 
	C721.246338,327.492706 721.504150,326.996063 721.876160,326.243439 
	C723.138611,325.085632 724.286926,324.183777 725.714722,323.138428 
	C724.574097,324.656677 723.153931,326.318481 721.361206,327.984833 
z"/>
<path fill="#FA9F08" opacity="1.000000" stroke="none" 
	d="
M785.124023,258.009644 
	C785.388794,257.900238 785.613586,258.121399 785.754639,258.690552 
	C785.516968,258.752136 785.321350,258.519348 785.124023,258.009644 
z"/>
<path fill="#FD7805" opacity="1.000000" stroke="none" 
	d="
M754.982056,534.977539 
	C745.585815,534.670593 736.189575,534.363586 726.322388,534.100281 
	C725.851379,534.143921 725.885254,534.064087 725.702148,533.804993 
	C724.615601,533.387329 723.712219,533.228760 722.808838,533.070190 
	C722.808838,533.070190 722.369019,533.090088 721.984741,532.776428 
	C721.071533,532.320740 720.542664,532.178711 720.013794,532.036682 
	C720.013794,532.036682 719.979553,532.036316 719.792786,531.793579 
	C719.063293,531.388245 718.520569,531.225647 717.977844,531.063110 
	C717.977844,531.063110 717.996460,531.012756 717.767456,530.779480 
	C716.908325,530.396606 716.278259,530.247009 715.648193,530.097473 
	C689.588074,518.657410 670.271912,500.257629 658.880310,474.080902 
	C655.480225,466.267731 653.412842,457.874603 651.137451,449.408325 
	C654.590820,452.870575 657.898438,456.499084 660.606995,460.530121 
	C662.592285,463.484711 664.243530,464.411255 667.388245,462.180359 
	C670.578735,459.917023 671.937256,461.108551 673.273987,464.857666 
	C674.362000,467.909271 677.272034,470.618713 679.981567,472.682434 
	C681.967590,474.195099 684.899292,474.918152 687.476685,475.115265 
	C694.484131,475.651154 700.481873,481.785034 707.963562,478.890472 
	C709.554626,478.274902 711.422729,476.612823 711.848755,475.069946 
	C713.288086,469.857269 712.739014,464.735260 710.517212,459.611694 
	C708.629761,455.259216 711.215759,448.960205 714.638550,448.112732 
	C719.703918,446.858582 724.755493,445.000732 729.890564,444.692383 
	C739.992615,444.085815 750.428894,442.855743 760.209473,444.671082 
	C772.070740,446.872620 781.608032,442.371582 791.523071,438.139587 
	C796.765503,435.901978 801.417236,432.313385 806.576172,429.835419 
	C809.709473,428.330414 813.314087,427.820923 816.677795,426.770660 
	C817.413208,426.540985 818.155212,426.029297 818.671265,425.449158 
	C822.330933,421.335510 828.860718,420.690247 831.265320,414.981659 
	C831.518677,414.380066 833.052734,414.317902 833.995361,414.410339 
	C834.334106,416.875153 834.670044,418.935181 835.002563,421.424805 
	C834.990845,423.575470 834.982544,425.296509 834.637329,426.941010 
	C833.210938,426.274048 832.121460,425.683624 830.759583,424.945587 
	C824.448914,440.320679 820.331299,456.906342 802.337891,463.149872 
	C802.719299,464.784302 803.048523,466.195374 803.377808,467.606415 
	C802.711121,468.147064 802.044434,468.687714 801.377747,469.228363 
	C800.614380,467.464600 799.851013,465.700836 799.161621,464.108063 
	C791.991760,466.576050 785.446045,468.880829 778.862915,471.073181 
	C775.612793,472.155579 772.335144,473.623016 768.995667,473.857056 
	C764.255371,474.189331 761.649719,476.830933 760.136963,480.643341 
	C758.265930,485.358521 755.206360,487.566956 750.139160,488.097839 
	C743.113403,488.833954 736.185913,490.577484 729.155945,491.156067 
	C727.252991,491.312653 724.244263,489.285065 723.293213,487.454590 
	C721.203247,483.431946 720.777283,483.063202 717.271912,486.209534 
	C714.063782,489.089111 710.842590,491.962921 707.493408,494.674011 
	C704.546936,497.059204 704.354187,499.498291 707.836914,501.059082 
	C714.062134,503.848938 720.393188,506.714172 726.980164,508.304810 
	C734.826355,510.199432 742.978638,511.605774 751.016663,511.702545 
	C758.716248,511.795227 766.430054,509.854889 774.158936,509.001190 
	C776.005676,508.797211 777.937195,509.360809 779.829712,509.571350 
	C778.624878,511.439728 777.708923,513.624207 776.121948,515.074402 
	C774.899414,516.191589 772.838196,516.399353 771.141968,516.988464 
	C766.220520,518.697632 761.268127,520.322449 756.380554,522.123108 
	C753.119385,523.324585 753.160461,525.577332 754.269836,528.531555 
	C755.006348,530.492859 754.778320,532.816223 754.982056,534.977539 
z"/>
<path fill="#FD8703" opacity="1.000000" stroke="none" 
	d="
M833.992676,414.005493 
	C833.052734,414.317902 831.518677,414.380066 831.265320,414.981659 
	C828.860718,420.690247 822.330933,421.335510 818.671265,425.449158 
	C818.155212,426.029297 817.413208,426.540985 816.677795,426.770660 
	C813.314087,427.820923 809.709473,428.330414 806.576172,429.835419 
	C801.417236,432.313385 796.765503,435.901978 791.523071,438.139587 
	C781.608032,442.371582 772.070740,446.872620 760.209473,444.671082 
	C750.428894,442.855743 739.992615,444.085815 729.890564,444.692383 
	C724.755493,445.000732 719.703918,446.858582 714.638550,448.112732 
	C711.215759,448.960205 708.629761,455.259216 710.517212,459.611694 
	C712.739014,464.735260 713.288086,469.857269 711.848755,475.069946 
	C711.422729,476.612823 709.554626,478.274902 707.963562,478.890472 
	C700.481873,481.785034 694.484131,475.651154 687.476685,475.115265 
	C684.899292,474.918152 681.967590,474.195099 679.981567,472.682434 
	C677.272034,470.618713 674.362000,467.909271 673.273987,464.857666 
	C671.937256,461.108551 670.578735,459.917023 667.388245,462.180359 
	C664.243530,464.411255 662.592285,463.484711 660.606995,460.530121 
	C657.898438,456.499084 654.590820,452.870575 651.168091,449.007202 
	C650.719360,448.609406 650.642395,448.273926 650.749146,447.344116 
	C650.606995,445.813019 650.281250,444.876221 649.955444,443.939453 
	C649.759766,443.239899 649.564087,442.540344 649.780640,441.230408 
	C650.460938,437.862823 651.208069,435.051819 650.905518,432.358734 
	C650.058167,424.815552 654.022461,419.616882 658.658813,414.549500 
	C660.436035,412.607056 662.144226,412.687805 662.674133,415.041687 
	C664.045715,421.134460 665.408691,427.300507 665.888611,433.505890 
	C666.612488,442.866638 670.880798,449.565887 679.043884,454.365540 
	C679.811096,456.201233 680.458069,457.720306 681.240295,459.166260 
	C683.235657,462.854340 690.385803,466.346069 694.412231,465.678680 
	C699.355957,464.859161 702.667664,462.421265 703.397522,456.957123 
	C707.107727,453.149567 708.485474,448.854004 708.067078,443.801666 
	C707.866394,441.378815 708.234253,438.843903 708.731445,436.439728 
	C710.599609,427.407318 712.627136,418.407867 714.610046,409.276550 
	C714.625244,409.157013 714.820068,409.008331 715.176880,408.943665 
	C717.022644,406.249420 718.511597,403.619843 720.341553,401.075684 
	C722.750916,403.088562 724.609314,406.303986 726.930054,406.682159 
	C732.162537,407.534790 737.624207,406.948242 742.991821,407.014404 
	C747.502625,407.069977 752.181702,406.494476 756.483276,407.497559 
	C763.087341,409.037537 769.409485,410.790924 776.197693,408.432312 
	C782.505432,406.240540 788.201355,402.193909 795.472900,402.700653 
	C797.568054,402.846649 799.886780,400.710297 801.996948,399.443665 
	C803.952087,398.270111 805.914429,397.028778 807.614868,395.524811 
	C813.917847,389.949890 820.932434,388.097198 829.137451,391.330200 
	C830.186279,393.771942 831.089478,395.890839 831.992188,398.436127 
	C832.658752,403.910156 833.325684,408.957794 833.992676,414.005493 
z"/>
<path fill="#FA9F08" opacity="1.000000" stroke="none" 
	d="
M714.594849,409.396088 
	C712.627136,418.407867 710.599609,427.407318 708.731445,436.439728 
	C708.234253,438.843903 707.866394,441.378815 708.067078,443.801666 
	C708.485474,448.854004 707.107727,453.149567 703.435974,456.553436 
	C702.760681,452.492157 702.385498,448.743011 701.958435,444.648834 
	C698.537109,439.153931 691.695801,435.937469 686.864990,437.231903 
	C682.146667,438.496216 679.009216,443.594055 678.998718,450.407898 
	C678.991760,451.877502 678.988525,452.946564 678.985291,454.015625 
	C670.880798,449.565887 666.612488,442.866638 665.888611,433.505890 
	C665.408691,427.300507 664.045715,421.134460 662.674133,415.041687 
	C662.144226,412.687805 660.436035,412.607056 658.658813,414.549500 
	C654.022461,419.616882 650.058167,424.815552 650.905518,432.358734 
	C651.208069,435.051819 650.460938,437.862823 649.816345,440.864990 
	C646.785400,419.216400 651.218079,398.859100 662.678284,380.024139 
	C663.884888,378.041107 665.078552,376.050201 666.446472,373.758698 
	C666.880188,372.992676 667.145630,372.530884 667.543213,371.838654 
	C668.863892,369.747772 670.052429,367.887299 671.353577,365.725525 
	C672.433838,364.342133 673.401550,363.260071 674.653137,362.016052 
	C676.228882,363.828430 677.085449,366.681580 678.908081,367.584381 
	C682.164856,369.197601 682.437195,370.947662 681.126404,373.805573 
	C680.748108,374.630524 680.738525,375.624603 680.731384,377.128357 
	C677.764221,385.487762 674.427856,393.189667 671.626404,401.081543 
	C670.928528,403.047546 671.958069,405.626740 672.193604,407.924072 
	C672.732605,407.912903 673.271606,407.901733 673.810608,407.890564 
	C675.249573,405.940796 676.688477,403.991028 678.142944,402.457245 
	C677.885925,404.340515 677.351562,405.813965 677.385986,407.274017 
	C677.539368,413.786987 677.542114,420.588348 684.100708,424.416046 
	C689.676086,427.669952 695.788513,426.860138 700.583496,423.223236 
	C705.767456,419.291229 709.966309,414.060394 714.594849,409.396088 
z"/>
<path fill="#F86009" opacity="1.000000" stroke="none" 
	d="
M723.050293,533.324524 
	C723.712219,533.228760 724.615601,533.387329 725.744934,533.811646 
	C725.077820,533.911194 724.184814,533.744995 723.050293,533.324524 
z"/>
<path fill="#FD7805" opacity="1.000000" stroke="none" 
	d="
M649.891785,444.327637 
	C650.281250,444.876221 650.606995,445.813019 650.929199,447.144043 
	C650.559814,446.597473 650.193970,445.656677 649.891785,444.327637 
z"/>
<path fill="#F86009" opacity="1.000000" stroke="none" 
	d="
M715.866821,530.346802 
	C716.278259,530.247009 716.908325,530.396606 717.748413,530.798340 
	C717.334167,530.899048 716.709778,530.747620 715.866821,530.346802 
z"/>
<path fill="#F86009" opacity="1.000000" stroke="none" 
	d="
M718.118774,531.325806 
	C718.520569,531.225647 719.063293,531.388245 719.783325,531.779297 
	C719.393677,531.868042 718.826660,531.728210 718.118774,531.325806 
z"/>
<path fill="#F86009" opacity="1.000000" stroke="none" 
	d="
M720.172058,532.278625 
	C720.542664,532.178711 721.071533,532.320740 721.798584,532.658813 
	C721.441284,532.743469 720.885803,532.632019 720.172058,532.278625 
z"/>
<path fill="#FD7805" opacity="1.000000" stroke="none" 
	d="
M819.977905,314.048157 
	C819.128296,312.850403 818.278687,311.652588 817.186523,310.257385 
	C816.633118,307.657532 816.322327,305.255157 816.010010,302.443665 
	C816.324646,302.168854 816.640747,302.303131 817.181274,302.572083 
	C817.513184,302.964417 817.658875,303.198242 817.992188,303.552216 
	C819.354248,305.273315 820.567017,306.850433 822.074646,308.605286 
	C822.506653,309.016724 822.670227,309.230225 823.011963,309.556854 
	C824.704834,311.555420 826.245911,313.420563 828.046509,315.482605 
	C830.167908,317.876221 832.029846,320.072968 834.169922,322.449219 
	C834.576416,322.913635 834.745422,323.171906 835.127319,323.559662 
	C835.450928,323.970001 835.638672,324.193726 836.035645,324.521973 
	C837.779968,326.491791 839.351318,328.326569 841.186035,330.350281 
	C843.591553,333.085480 845.733582,335.631744 848.129578,338.378021 
	C851.194214,342.130890 854.004944,345.683716 857.058472,349.454041 
	C860.149902,353.513916 862.998535,357.356323 866.095642,361.409668 
	C867.763428,363.843750 869.182800,366.066864 870.388062,368.587402 
	C869.441223,368.588959 868.708557,368.293091 867.724792,367.784424 
	C864.255249,364.338257 861.011597,361.129181 857.839539,357.850861 
	C857.213928,357.204285 856.594788,356.343018 856.429321,355.491943 
	C854.822998,347.234375 847.549683,343.408508 842.627014,337.705719 
	C843.767822,340.795563 845.872620,343.267120 847.286987,346.085205 
	C848.325745,348.154999 848.459900,350.678772 848.733765,352.786560 
	C844.313782,346.382996 840.157227,340.193054 835.920532,333.675232 
	C830.552917,326.914276 825.265442,320.481232 819.977905,314.048157 
z"/>
<path fill="#FED005" opacity="1.000000" stroke="none" 
	d="
M812.982788,307.645325 
	C812.350403,307.206940 811.683655,306.454559 811.009705,305.355347 
	C811.651184,305.782806 812.299866,306.557068 812.982788,307.645325 
z"/>
<path fill="#F9B507" opacity="1.000000" stroke="none" 
	d="
M717.643311,310.921631 
	C717.721802,311.110809 717.549988,311.421783 717.145264,311.873901 
	C717.072571,311.691162 717.232788,311.367279 717.643311,310.921631 
z"/>
<path fill="#FD7805" opacity="1.000000" stroke="none" 
	d="
M882.024414,386.511871 
	C880.721558,384.820099 879.391907,382.791290 878.100281,380.384125 
	C879.424683,382.062103 880.711182,384.118500 882.024414,386.511871 
z"/>
<path fill="#FD7805" opacity="1.000000" stroke="none" 
	d="
M878.036743,379.547729 
	C877.407532,379.103973 876.763794,378.366943 876.177368,377.284210 
	C876.562622,376.929779 876.819153,377.060913 877.180176,377.473511 
	C877.578125,378.161591 877.800171,378.708008 878.036743,379.547729 
z"/>
<path fill="#FD7805" opacity="1.000000" stroke="none" 
	d="
M884.240173,390.472717 
	C883.908813,390.355408 883.539673,389.965881 883.177795,389.283325 
	C883.524170,389.393677 883.863281,389.797089 884.240173,390.472717 
z"/>
<path fill="#FD7805" opacity="1.000000" stroke="none" 
	d="
M883.094971,388.548859 
	C882.767822,388.406097 882.447205,387.984283 882.130859,387.280334 
	C882.457214,387.422058 882.779358,387.845947 883.094971,388.548859 
z"/>
<path fill="#F86009" opacity="1.000000" stroke="none" 
	d="
M867.975830,367.997253 
	C868.708557,368.293091 869.441223,368.588959 870.467407,368.902924 
	C870.760925,368.921051 871.111511,369.231598 871.107666,369.868683 
	C871.077637,371.337250 871.051453,372.168762 870.689453,372.956909 
	C867.971619,372.043518 866.510254,370.728210 867.975830,367.997253 
z"/>
<path fill="#FD7805" opacity="1.000000" stroke="none" 
	d="
M871.025269,373.000244 
	C871.051453,372.168762 871.077637,371.337250 871.171753,370.093933 
	C871.791870,370.209076 872.344177,370.736053 873.120178,371.444824 
	C873.574829,372.155914 873.805786,372.685150 874.055725,373.498718 
	C873.891052,373.833282 873.707336,373.883514 872.999512,373.857147 
	C871.992004,373.520447 871.508606,373.260345 871.025269,373.000244 
z"/>
<path fill="#FD7805" opacity="1.000000" stroke="none" 
	d="
M876.067139,376.508942 
	C875.442505,376.074249 874.796936,375.340790 874.166748,374.291901 
	C874.803406,374.721039 875.424744,375.465607 876.067139,376.508942 
z"/>
<path fill="#FC6C03" opacity="1.000000" stroke="none" 
	d="
M755.429810,534.984863 
	C754.778320,532.816223 755.006348,530.492859 754.269836,528.531555 
	C753.160461,525.577332 753.119385,523.324585 756.380554,522.123108 
	C761.268127,520.322449 766.220520,518.697632 771.141968,516.988464 
	C772.838196,516.399353 774.899414,516.191589 776.121948,515.074402 
	C777.708923,513.624207 778.624878,511.439728 779.829712,509.571350 
	C777.937195,509.360809 776.005676,508.797211 774.158936,509.001190 
	C766.430054,509.854889 758.716248,511.795227 751.016663,511.702545 
	C742.978638,511.605774 734.826355,510.199432 726.980164,508.304810 
	C720.393188,506.714172 714.062134,503.848938 707.836914,501.059082 
	C704.354187,499.498291 704.546936,497.059204 707.493408,494.674011 
	C710.842590,491.962921 714.063782,489.089111 717.271912,486.209534 
	C720.777283,483.063202 721.203247,483.431946 723.293213,487.454590 
	C724.244263,489.285065 727.252991,491.312653 729.155945,491.156067 
	C736.185913,490.577484 743.113403,488.833954 750.139160,488.097839 
	C755.206360,487.566956 758.265930,485.358521 760.136963,480.643341 
	C761.649719,476.830933 764.255371,474.189331 768.995667,473.857056 
	C772.335144,473.623016 775.612793,472.155579 778.862915,471.073181 
	C785.446045,468.880829 791.991760,466.576050 799.161621,464.108063 
	C799.851013,465.700836 800.614380,467.464600 801.377747,469.228363 
	C802.044434,468.687714 802.711121,468.147064 803.377808,467.606415 
	C803.048523,466.195374 802.719299,464.784302 802.337891,463.149872 
	C820.331299,456.906342 824.448914,440.320679 830.759583,424.945587 
	C832.121460,425.683624 833.210938,426.274048 834.642090,427.311951 
	C834.983093,428.502289 834.982544,429.245148 834.691406,430.042023 
	C834.272522,431.065735 834.144104,432.035492 834.012817,433.433228 
	C834.003540,435.573517 833.997070,437.285828 833.731323,439.290253 
	C832.996033,442.166870 833.001892,444.967041 831.958435,447.297424 
	C828.001587,456.134674 823.628906,464.784882 819.591919,473.587646 
	C818.644958,475.652588 818.403625,478.041107 817.837646,480.280762 
	C818.251709,480.555908 818.665833,480.831055 819.079895,481.106201 
	C821.099976,480.161011 823.142700,479.261230 825.136353,478.263245 
	C837.714966,471.966461 844.090759,460.005096 850.787598,448.766327 
	C854.811646,442.013000 860.036011,438.271271 867.004883,436.003448 
	C868.339600,445.163940 862.649719,451.166840 857.251282,457.160675 
	C851.287903,463.781647 844.674255,469.841003 838.982544,476.676880 
	C830.641357,486.694855 820.686035,494.682556 810.047119,502.014313 
	C800.147827,508.836273 790.417908,515.903748 780.598145,522.841492 
	C778.443115,524.364075 776.223267,525.794861 773.961670,527.991150 
	C772.260132,530.142090 770.630066,531.569824 769.000000,532.997559 
	C764.625854,533.662415 760.251770,534.327271 755.429810,534.984863 
z"/>
<path fill="#FD7805" opacity="1.000000" stroke="none" 
	d="
M867.166260,435.634033 
	C860.036011,438.271271 854.811646,442.013000 850.787598,448.766327 
	C844.090759,460.005096 837.714966,471.966461 825.136353,478.263245 
	C823.142700,479.261230 821.099976,480.161011 819.079895,481.106201 
	C818.665833,480.831055 818.251709,480.555908 817.837646,480.280762 
	C818.403625,478.041107 818.644958,475.652588 819.591919,473.587646 
	C823.628906,464.784882 828.001587,456.134674 831.958435,447.297424 
	C833.001892,444.967041 832.996033,442.166870 833.992554,439.508484 
	C835.078003,441.465851 835.642883,443.497131 836.496277,446.566101 
	C841.207275,441.192505 845.804626,436.466858 849.780640,431.266144 
	C853.678711,426.167419 856.706970,420.404877 860.589233,415.292267 
	C862.502075,412.773132 865.480835,411.063354 867.977295,408.987366 
	C867.760681,417.746460 867.544128,426.505554 867.166260,435.634033 
z"/>
<path fill="#FD8703" opacity="1.000000" stroke="none" 
	d="
M867.966187,408.582764 
	C865.480835,411.063354 862.502075,412.773132 860.589233,415.292267 
	C856.706970,420.404877 853.678711,426.167419 849.780640,431.266144 
	C845.804626,436.466858 841.207275,441.192505 836.496277,446.566101 
	C835.642883,443.497131 835.078003,441.465851 834.251892,439.216370 
	C833.997070,437.285828 834.003540,435.573517 834.252869,433.206604 
	C834.657837,431.697296 834.819885,430.842682 834.981934,429.988037 
	C834.982544,429.245148 834.983093,428.502289 834.979004,427.388489 
	C834.982544,425.296509 834.990845,423.575470 835.362549,421.475830 
	C840.159729,422.847748 842.508118,420.221222 844.512512,416.898529 
	C845.613708,415.073059 846.267517,412.663330 847.846680,411.495514 
	C854.459290,406.605530 852.327454,396.204651 860.247070,392.205261 
	C860.822083,391.914917 860.671875,390.339478 861.025696,389.426117 
	C861.607544,387.924194 862.326050,386.475189 863.220093,385.183594 
	C863.641418,385.910980 863.829590,386.458679 864.017761,387.006409 
	C865.330200,394.063690 866.642639,401.120941 867.966187,408.582764 
z"/>
<path fill="#FC6C03" opacity="1.000000" stroke="none" 
	d="
M864.367798,386.913391 
	C863.829590,386.458679 863.641418,385.910980 863.175293,384.841095 
	C862.588440,383.215210 862.279419,382.111542 862.215698,380.771851 
	C861.636414,378.692474 860.811829,376.849121 859.974060,374.769470 
	C859.960876,374.533203 859.948364,374.060089 859.954468,373.678345 
	C858.975708,371.530426 857.990906,369.764191 856.994446,367.757446 
	C856.982788,367.516937 856.972046,367.035492 856.863647,366.820435 
	C856.564270,366.337433 856.319214,366.135040 856.010132,365.751343 
	C856.000183,365.504486 855.985657,365.010620 855.981201,364.663025 
	C855.320923,363.542480 854.665161,362.769531 853.834351,361.769043 
	C853.138550,361.324585 852.617798,361.107666 852.067505,360.523254 
	C851.024353,357.770599 850.010742,355.385406 848.997192,353.000244 
	C848.459900,350.678772 848.325745,348.154999 847.286987,346.085205 
	C845.872620,343.267120 843.767822,340.795563 842.627014,337.705719 
	C847.549683,343.408508 854.822998,347.234375 856.429321,355.491943 
	C856.594788,356.343018 857.213928,357.204285 857.839539,357.850861 
	C861.011597,361.129181 864.255249,364.338257 867.724792,367.784424 
	C866.510254,370.728210 867.971619,372.043518 870.689453,372.956909 
	C871.508606,373.260345 871.992004,373.520447 872.718506,373.908325 
	C872.982544,376.982025 872.737732,379.201752 868.972778,380.368103 
	C867.070679,380.957336 866.106201,384.573059 864.367798,386.913391 
z"/>
<path fill="#FD7805" opacity="1.000000" stroke="none" 
	d="
M769.431580,532.997070 
	C770.630066,531.569824 772.260132,530.142090 773.947510,528.361816 
	C777.230530,528.377930 780.456177,528.746582 783.681763,529.115234 
	C783.772095,529.589966 783.862488,530.064697 783.952820,530.539429 
	C779.256287,531.358459 774.559692,532.177490 769.431580,532.997070 
z"/>
<path fill="#FE9703" opacity="1.000000" stroke="none" 
	d="
M828.991943,391.007324 
	C820.932434,388.097198 813.917847,389.949890 807.614868,395.524811 
	C805.914429,397.028778 803.952087,398.270111 801.996948,399.443665 
	C799.886780,400.710297 797.568054,402.846649 795.472900,402.700653 
	C788.201355,402.193909 782.505432,406.240540 776.197693,408.432312 
	C769.409485,410.790924 763.087341,409.037537 756.483276,407.497559 
	C752.181702,406.494476 747.502625,407.069977 742.991821,407.014404 
	C737.624207,406.948242 732.162537,407.534790 726.930054,406.682159 
	C724.609314,406.303986 722.750916,403.088562 720.350647,400.704529 
	C721.347412,397.172668 722.676208,394.097321 724.296204,390.848938 
	C725.737183,389.076263 726.875305,387.468140 728.038940,385.878632 
	C731.678772,380.906219 735.328247,375.940826 738.973999,370.972717 
	C744.777161,367.051239 750.130432,367.751556 755.556763,372.026031 
	C756.810608,373.013763 759.353760,372.787903 761.210693,372.506866 
	C766.513916,371.704315 771.914246,373.270660 777.173767,369.816833 
	C784.007080,365.329498 791.768066,362.270447 799.038513,358.424164 
	C801.453064,357.146790 803.585876,355.336884 806.443481,353.357605 
	C808.465027,355.285492 810.886658,357.594940 813.786377,360.250183 
	C815.181458,362.058167 816.098511,363.520416 817.057678,365.335632 
	C821.063843,374.128174 825.027893,382.567749 828.991943,391.007324 
z"/>
<path fill="#FCBF07" opacity="1.000000" stroke="none" 
	d="
M739.024475,370.623535 
	C735.328247,375.940826 731.678772,380.906219 728.038940,385.878632 
	C726.875305,387.468140 725.737183,389.076263 723.905884,390.829712 
	C722.133118,389.676208 720.875061,388.471466 719.991638,387.036194 
	C718.820374,385.133240 717.941833,383.050140 716.658447,380.923370 
	C715.916626,380.159637 715.453796,379.516998 714.913940,378.572876 
	C714.173218,377.876923 713.509583,377.482452 712.473145,377.068909 
	C705.387024,373.507050 699.569336,376.309265 694.014526,379.834442 
	C685.768555,385.067535 681.901917,393.547699 678.127441,402.041260 
	C676.688477,403.991028 675.249573,405.940796 673.810608,407.890564 
	C673.271606,407.901733 672.732605,407.912903 672.193604,407.924072 
	C671.958069,405.626740 670.928528,403.047546 671.626404,401.081543 
	C674.427856,393.189667 677.764221,385.487762 680.960144,377.358368 
	C686.260681,369.474274 691.302795,361.796051 696.812439,354.469513 
	C701.036560,348.852509 705.850708,343.679260 710.695557,338.149292 
	C709.719971,341.285126 708.451233,344.580292 706.925476,348.542969 
	C712.762939,350.419891 718.414795,352.207031 724.045349,354.058777 
	C727.476807,355.187286 730.899597,356.350891 734.283081,357.614441 
	C738.903198,359.339813 743.271484,359.334290 747.658203,356.064880 
	C745.039612,360.771027 742.057251,365.522705 739.024475,370.623535 
z"/>
<path fill="#FCBF07" opacity="1.000000" stroke="none" 
	d="
M817.015503,364.982635 
	C816.098511,363.520416 815.181458,362.058167 814.127319,360.301636 
	C810.028931,352.899811 806.067688,345.792297 802.066833,338.333649 
	C804.086853,338.930542 806.146484,339.878601 808.205688,340.826508 
	C812.924805,334.875885 817.589355,329.164917 821.991577,323.258392 
	C822.649841,322.375153 822.340820,320.505707 822.005493,319.215668 
	C821.603455,317.668762 820.692993,316.254028 819.990295,314.415100 
	C825.265442,320.481232 830.552917,326.914276 835.688721,333.944885 
	C837.918274,343.900360 833.278442,351.114655 829.053040,358.894714 
	C826.045898,364.431519 823.373779,367.510071 817.015503,364.982635 
z"/>
<path fill="#FE9703" opacity="1.000000" stroke="none" 
	d="
M859.948364,374.060089 
	C859.948364,374.060089 859.960876,374.533203 859.982178,375.136932 
	C860.659119,377.496399 861.314697,379.252136 861.970337,381.007874 
	C862.279419,382.111542 862.588440,383.215210 862.942200,384.661377 
	C862.326050,386.475189 861.607544,387.924194 861.025696,389.426117 
	C860.671875,390.339478 860.822083,391.914917 860.247070,392.205261 
	C852.327454,396.204651 854.459290,406.605530 847.846680,411.495514 
	C846.267517,412.663330 845.613708,415.073059 844.512512,416.898529 
	C842.508118,420.221222 840.159729,422.847748 835.365967,421.046204 
	C834.670044,418.935181 834.334106,416.875153 833.995361,414.410309 
	C833.325684,408.957794 832.658752,403.910156 832.350830,398.385376 
	C836.707397,396.964172 838.719910,394.342682 839.773621,390.431152 
	C840.930664,386.135895 842.409607,381.891357 844.158997,377.800354 
	C846.605835,372.078613 849.432739,366.519440 852.097046,360.890747 
	C852.617798,361.107666 853.138550,361.324585 853.867188,362.086304 
	C854.711914,363.424286 855.348816,364.217438 855.985657,365.010620 
	C855.985657,365.010620 856.000183,365.504486 856.119019,365.965576 
	C856.428650,366.694702 856.673401,366.897644 856.972046,367.035492 
	C856.972046,367.035492 856.982788,367.516937 857.002563,368.133087 
	C857.997681,370.519531 858.973022,372.289795 859.948364,374.060089 
z"/>
<path fill="#FBEAB2" opacity="1.000000" stroke="none" 
	d="
M678.142944,402.457245 
	C681.901917,393.547699 685.768555,385.067535 694.014526,379.834442 
	C699.569336,376.309265 705.387024,373.507050 712.614014,377.321808 
	C713.748840,378.020660 714.369934,378.447510 714.991028,378.874329 
	C715.453796,379.516998 715.916626,380.159637 716.710449,381.310242 
	C717.455811,386.475159 718.477722,391.180573 718.110962,395.775208 
	C717.754150,400.245331 715.974792,404.601898 714.820068,409.008331 
	C714.820068,409.008331 714.625244,409.157013 714.610107,409.276550 
	C709.966309,414.060394 705.767456,419.291229 700.583496,423.223236 
	C695.788513,426.860138 689.676086,427.669952 684.100708,424.416046 
	C677.542114,420.588348 677.539368,413.786987 677.385986,407.274017 
	C677.351562,405.813965 677.885925,404.340515 678.142944,402.457245 
z"/>
<path fill="#FDA803" opacity="1.000000" stroke="none" 
	d="
M852.067505,360.523254 
	C849.432739,366.519440 846.605835,372.078613 844.158997,377.800354 
	C842.409607,381.891357 840.930664,386.135895 839.773621,390.431152 
	C838.719910,394.342682 836.707397,396.964172 832.351318,397.959015 
	C831.089478,395.890839 830.186279,393.771942 829.137451,391.330200 
	C825.027893,382.567749 821.063843,374.128174 817.057678,365.335632 
	C823.373779,367.510071 826.045898,364.431519 829.053040,358.894714 
	C833.278442,351.114655 837.918274,343.900360 835.768860,334.272766 
	C840.157227,340.193054 844.313782,346.382996 848.733765,352.786560 
	C850.010742,355.385406 851.024353,357.770599 852.067505,360.523254 
z"/>
<path fill="#F9B507" opacity="1.000000" stroke="none" 
	d="
M679.043884,454.365540 
	C678.988525,452.946564 678.991760,451.877502 679.466919,450.405884 
	C684.716003,450.003021 689.501892,449.824188 694.267639,450.057495 
	C698.241211,450.251984 701.057434,449.177887 702.010315,444.993896 
	C702.385498,448.743011 702.760681,452.492157 703.097351,456.644958 
	C702.667664,462.421265 699.355957,464.859161 694.412231,465.678680 
	C690.385803,466.346069 683.235657,462.854340 681.240295,459.166260 
	C680.458069,457.720306 679.811096,456.201233 679.043884,454.365540 
z"/>
<path fill="#FA9F08" opacity="1.000000" stroke="none" 
	d="
M715.176880,408.943665 
	C715.974792,404.601898 717.754150,400.245331 718.110962,395.775208 
	C718.477722,391.180573 717.455811,386.475159 716.989502,381.431335 
	C717.941833,383.050140 718.820374,385.133240 719.991638,387.036194 
	C720.875061,388.471466 722.133118,389.676208 723.614624,391.002777 
	C722.676208,394.097321 721.347412,397.172668 720.009583,400.619141 
	C718.511597,403.619843 717.022644,406.249420 715.176880,408.943665 
z"/>
<path fill="#FCBF07" opacity="1.000000" stroke="none" 
	d="
M701.958435,444.648834 
	C701.057434,449.177887 698.241211,450.251984 694.267639,450.057495 
	C689.501892,449.824188 684.716003,450.003021 679.470642,450.005341 
	C679.009216,443.594055 682.146667,438.496216 686.864990,437.231903 
	C691.695801,435.937469 698.537109,439.153931 701.958435,444.648834 
z"/>
<path fill="#FD7805" opacity="1.000000" stroke="none" 
	d="
M834.691406,430.042023 
	C834.819885,430.842682 834.657837,431.697296 834.255737,432.778564 
	C834.144104,432.035492 834.272522,431.065735 834.691406,430.042023 
z"/>
<path fill="#FD7805" opacity="1.000000" stroke="none" 
	d="
M862.215698,380.771851 
	C861.314697,379.252136 860.659119,377.496399 859.995361,375.373230 
	C860.811829,376.849121 861.636414,378.692474 862.215698,380.771851 
z"/>
<path fill="#FD7805" opacity="1.000000" stroke="none" 
	d="
M859.954468,373.678345 
	C858.973022,372.289795 857.997681,370.519531 857.014221,368.373596 
	C857.990906,369.764191 858.975708,371.530426 859.954468,373.678345 
z"/>
<path fill="#FD7805" opacity="1.000000" stroke="none" 
	d="
M855.981201,364.663025 
	C855.348816,364.217438 854.711914,363.424286 854.042175,362.313843 
	C854.665161,362.769531 855.320923,363.542480 855.981201,364.663025 
z"/>
<path fill="#FD7805" opacity="1.000000" stroke="none" 
	d="
M856.863647,366.820435 
	C856.673401,366.897644 856.428650,366.694702 856.128967,366.212402 
	C856.319214,366.135040 856.564270,366.337433 856.863647,366.820435 
z"/>
<path fill="#FA9F08" opacity="1.000000" stroke="none" 
	d="
M714.913940,378.572876 
	C714.369934,378.447510 713.748840,378.020660 712.986816,377.340881 
	C713.509583,377.482452 714.173218,377.876923 714.913940,378.572876 
z"/>
</svg>